<mxfile host="Electron" agent="Mozilla/5.0 (Windows NT 10.0; Win64; x64) AppleWebKit/537.36 (KHTML, like Gecko) draw.io/25.0.1 Chrome/128.0.6613.186 Electron/32.2.6 Safari/537.36" version="25.0.1" pages="7">
  <diagram name="Diagrama ER" id="DtKIO5XFwHDZ3K7n3A5H">
    <mxGraphModel dx="1551" dy="428" grid="1" gridSize="10" guides="1" tooltips="1" connect="1" arrows="1" fold="1" page="1" pageScale="1" pageWidth="827" pageHeight="1169" math="0" shadow="0">
      <root>
        <mxCell id="0" />
        <mxCell id="1" parent="0" />
        <mxCell id="pE6P2WJGbJV3E8VTcfzp-55" style="edgeStyle=orthogonalEdgeStyle;rounded=0;orthogonalLoop=1;jettySize=auto;html=1;endArrow=none;endFill=0;" parent="1" source="KVTTR3r2XRFqggm1HM6N-1" target="pE6P2WJGbJV3E8VTcfzp-54" edge="1">
          <mxGeometry relative="1" as="geometry" />
        </mxCell>
        <mxCell id="pE6P2WJGbJV3E8VTcfzp-57" value="1" style="edgeLabel;html=1;align=center;verticalAlign=middle;resizable=0;points=[];" parent="pE6P2WJGbJV3E8VTcfzp-55" vertex="1" connectable="0">
          <mxGeometry x="-0.681" relative="1" as="geometry">
            <mxPoint x="4" as="offset" />
          </mxGeometry>
        </mxCell>
        <mxCell id="ykKMeR53KBifFj36ryYj-47" style="edgeStyle=orthogonalEdgeStyle;rounded=0;orthogonalLoop=1;jettySize=auto;html=1;endArrow=none;endFill=0;" parent="1" source="KVTTR3r2XRFqggm1HM6N-1" target="ykKMeR53KBifFj36ryYj-44" edge="1">
          <mxGeometry relative="1" as="geometry" />
        </mxCell>
        <mxCell id="ykKMeR53KBifFj36ryYj-49" value="1" style="edgeLabel;html=1;align=center;verticalAlign=middle;resizable=0;points=[];" parent="ykKMeR53KBifFj36ryYj-47" vertex="1" connectable="0">
          <mxGeometry x="-0.6185" y="1" relative="1" as="geometry">
            <mxPoint as="offset" />
          </mxGeometry>
        </mxCell>
        <mxCell id="KVTTR3r2XRFqggm1HM6N-1" value="Persona" style="rounded=0;whiteSpace=wrap;html=1;" parent="1" vertex="1">
          <mxGeometry x="360" y="360" width="80" height="40" as="geometry" />
        </mxCell>
        <mxCell id="KVTTR3r2XRFqggm1HM6N-3" value="" style="endArrow=classic;html=1;rounded=0;" parent="1" source="KVTTR3r2XRFqggm1HM6N-1" target="pE6P2WJGbJV3E8VTcfzp-11" edge="1">
          <mxGeometry width="50" height="50" relative="1" as="geometry">
            <mxPoint x="410" y="400" as="sourcePoint" />
            <mxPoint x="386.95467509240734" y="279.98584237512387" as="targetPoint" />
          </mxGeometry>
        </mxCell>
        <mxCell id="ykKMeR53KBifFj36ryYj-17" value="" style="edgeStyle=orthogonalEdgeStyle;rounded=0;orthogonalLoop=1;jettySize=auto;html=1;endArrow=none;endFill=0;" parent="1" source="KVTTR3r2XRFqggm1HM6N-13" target="ykKMeR53KBifFj36ryYj-16" edge="1">
          <mxGeometry relative="1" as="geometry" />
        </mxCell>
        <mxCell id="ykKMeR53KBifFj36ryYj-23" value="0...N" style="edgeLabel;html=1;align=center;verticalAlign=middle;resizable=0;points=[];" parent="ykKMeR53KBifFj36ryYj-17" vertex="1" connectable="0">
          <mxGeometry x="-0.3709" relative="1" as="geometry">
            <mxPoint y="-5" as="offset" />
          </mxGeometry>
        </mxCell>
        <mxCell id="KVTTR3r2XRFqggm1HM6N-13" value="Propiedad" style="rounded=0;whiteSpace=wrap;html=1;" parent="1" vertex="1">
          <mxGeometry x="360" y="704" width="80" height="40" as="geometry" />
        </mxCell>
        <mxCell id="KVTTR3r2XRFqggm1HM6N-15" value="nombres" style="ellipse;whiteSpace=wrap;html=1;" parent="1" vertex="1">
          <mxGeometry x="245" y="290" width="70" height="30" as="geometry" />
        </mxCell>
        <mxCell id="KVTTR3r2XRFqggm1HM6N-17" value="" style="endArrow=classic;html=1;rounded=0;" parent="1" source="KVTTR3r2XRFqggm1HM6N-1" target="KVTTR3r2XRFqggm1HM6N-15" edge="1">
          <mxGeometry width="50" height="50" relative="1" as="geometry">
            <mxPoint x="375" y="370" as="sourcePoint" />
            <mxPoint x="334" y="346" as="targetPoint" />
          </mxGeometry>
        </mxCell>
        <mxCell id="KVTTR3r2XRFqggm1HM6N-18" value="rut" style="ellipse;whiteSpace=wrap;html=1;fontStyle=0" parent="1" vertex="1">
          <mxGeometry x="315" y="410" width="50" height="30" as="geometry" />
        </mxCell>
        <mxCell id="KVTTR3r2XRFqggm1HM6N-19" value="" style="endArrow=classic;html=1;rounded=0;" parent="1" source="KVTTR3r2XRFqggm1HM6N-1" target="KVTTR3r2XRFqggm1HM6N-18" edge="1">
          <mxGeometry width="50" height="50" relative="1" as="geometry">
            <mxPoint x="450" y="370" as="sourcePoint" />
            <mxPoint x="499" y="346" as="targetPoint" />
          </mxGeometry>
        </mxCell>
        <mxCell id="uyBw6wWKs2QQ2-4XAmKk-3" value="" style="endArrow=classic;html=1;rounded=0;" parent="1" source="KVTTR3r2XRFqggm1HM6N-1" target="pE6P2WJGbJV3E8VTcfzp-10" edge="1">
          <mxGeometry width="50" height="50" relative="1" as="geometry">
            <mxPoint x="400" y="360" as="sourcePoint" />
            <mxPoint x="439.45902933501407" y="319.6589747965347" as="targetPoint" />
          </mxGeometry>
        </mxCell>
        <mxCell id="uyBw6wWKs2QQ2-4XAmKk-5" value="apellidos" style="ellipse;whiteSpace=wrap;html=1;" parent="1" vertex="1">
          <mxGeometry x="320" y="280" width="70" height="30" as="geometry" />
        </mxCell>
        <mxCell id="uyBw6wWKs2QQ2-4XAmKk-6" value="" style="endArrow=classic;html=1;rounded=0;" parent="1" source="KVTTR3r2XRFqggm1HM6N-1" target="uyBw6wWKs2QQ2-4XAmKk-5" edge="1">
          <mxGeometry width="50" height="50" relative="1" as="geometry">
            <mxPoint x="340" y="380" as="sourcePoint" />
            <mxPoint x="390" y="330" as="targetPoint" />
          </mxGeometry>
        </mxCell>
        <mxCell id="uyBw6wWKs2QQ2-4XAmKk-10" value="" style="endArrow=classic;html=1;rounded=0;" parent="1" source="KVTTR3r2XRFqggm1HM6N-1" target="uyBw6wWKs2QQ2-4XAmKk-8" edge="1">
          <mxGeometry width="50" height="50" relative="1" as="geometry">
            <mxPoint x="420" y="362" as="sourcePoint" />
            <mxPoint x="467" y="330" as="targetPoint" />
          </mxGeometry>
        </mxCell>
        <mxCell id="uyBw6wWKs2QQ2-4XAmKk-11" value="email" style="ellipse;whiteSpace=wrap;html=1;strokeColor=default;dashed=1;" parent="1" vertex="1">
          <mxGeometry x="460" y="300" width="50" height="30" as="geometry" />
        </mxCell>
        <mxCell id="uyBw6wWKs2QQ2-4XAmKk-12" value="" style="endArrow=classic;html=1;rounded=0;" parent="1" source="KVTTR3r2XRFqggm1HM6N-1" target="uyBw6wWKs2QQ2-4XAmKk-11" edge="1">
          <mxGeometry width="50" height="50" relative="1" as="geometry">
            <mxPoint x="460" y="380" as="sourcePoint" />
            <mxPoint x="510" y="330" as="targetPoint" />
          </mxGeometry>
        </mxCell>
        <mxCell id="uyBw6wWKs2QQ2-4XAmKk-15" value="direccion" style="ellipse;whiteSpace=wrap;html=1;" parent="1" vertex="1">
          <mxGeometry x="460" y="760" width="70" height="30" as="geometry" />
        </mxCell>
        <mxCell id="uyBw6wWKs2QQ2-4XAmKk-16" value="Documentos" style="rounded=0;whiteSpace=wrap;html=1;" parent="1" vertex="1">
          <mxGeometry x="77.82" y="360" width="80" height="40" as="geometry" />
        </mxCell>
        <mxCell id="uyBw6wWKs2QQ2-4XAmKk-32" value="" style="group" parent="1" vertex="1" connectable="0">
          <mxGeometry x="444" y="410" width="80" height="40" as="geometry" />
        </mxCell>
        <mxCell id="uyBw6wWKs2QQ2-4XAmKk-8" value="" style="ellipse;whiteSpace=wrap;html=1;fillColor=default;" parent="uyBw6wWKs2QQ2-4XAmKk-32" vertex="1">
          <mxGeometry width="80" height="40" as="geometry" />
        </mxCell>
        <mxCell id="uyBw6wWKs2QQ2-4XAmKk-9" value="telefono" style="ellipse;whiteSpace=wrap;html=1;" parent="uyBw6wWKs2QQ2-4XAmKk-32" vertex="1">
          <mxGeometry x="5" y="5" width="70" height="30" as="geometry" />
        </mxCell>
        <mxCell id="uyBw6wWKs2QQ2-4XAmKk-37" value="uso" style="ellipse;whiteSpace=wrap;html=1;" parent="1" vertex="1">
          <mxGeometry x="260" y="660" width="50" height="30" as="geometry" />
        </mxCell>
        <mxCell id="uyBw6wWKs2QQ2-4XAmKk-38" value="Comercio" style="rounded=0;whiteSpace=wrap;html=1;" parent="1" vertex="1">
          <mxGeometry x="360" y="1070" width="80" height="40" as="geometry" />
        </mxCell>
        <mxCell id="uyBw6wWKs2QQ2-4XAmKk-40" value="actividad_a_realizar" style="ellipse;whiteSpace=wrap;html=1;" parent="1" vertex="1">
          <mxGeometry x="337.25" y="1150" width="126" height="30" as="geometry" />
        </mxCell>
        <mxCell id="uyBw6wWKs2QQ2-4XAmKk-43" value="" style="endArrow=classic;html=1;rounded=0;" parent="1" source="uyBw6wWKs2QQ2-4XAmKk-38" target="uyBw6wWKs2QQ2-4XAmKk-40" edge="1">
          <mxGeometry width="50" height="50" relative="1" as="geometry">
            <mxPoint x="235.12" y="1089" as="sourcePoint" />
            <mxPoint x="296.12" y="1087" as="targetPoint" />
          </mxGeometry>
        </mxCell>
        <mxCell id="uyBw6wWKs2QQ2-4XAmKk-100" value="" style="endArrow=classic;html=1;rounded=0;" parent="1" source="KVTTR3r2XRFqggm1HM6N-13" target="uyBw6wWKs2QQ2-4XAmKk-15" edge="1">
          <mxGeometry width="50" height="50" relative="1" as="geometry">
            <mxPoint x="450" y="693" as="sourcePoint" />
            <mxPoint x="495" y="674" as="targetPoint" />
          </mxGeometry>
        </mxCell>
        <mxCell id="uyBw6wWKs2QQ2-4XAmKk-103" value="" style="endArrow=classic;html=1;rounded=0;" parent="1" source="KVTTR3r2XRFqggm1HM6N-13" target="uyBw6wWKs2QQ2-4XAmKk-37" edge="1">
          <mxGeometry width="50" height="50" relative="1" as="geometry">
            <mxPoint x="370" y="729" as="sourcePoint" />
            <mxPoint x="339" y="744" as="targetPoint" />
          </mxGeometry>
        </mxCell>
        <mxCell id="uyBw6wWKs2QQ2-4XAmKk-108" value="tipo_comercio" style="ellipse;whiteSpace=wrap;html=1;" parent="1" vertex="1">
          <mxGeometry x="215.12" y="1080" width="100" height="30" as="geometry" />
        </mxCell>
        <mxCell id="uyBw6wWKs2QQ2-4XAmKk-109" value="" style="endArrow=classic;html=1;rounded=0;" parent="1" source="uyBw6wWKs2QQ2-4XAmKk-38" target="uyBw6wWKs2QQ2-4XAmKk-108" edge="1">
          <mxGeometry width="50" height="50" relative="1" as="geometry">
            <mxPoint x="352.12" y="1119" as="sourcePoint" />
            <mxPoint x="409.12" y="1170" as="targetPoint" />
          </mxGeometry>
        </mxCell>
        <mxCell id="uyBw6wWKs2QQ2-4XAmKk-110" value="capital" style="ellipse;whiteSpace=wrap;html=1;" parent="1" vertex="1">
          <mxGeometry x="285.12" y="1120" width="60" height="30" as="geometry" />
        </mxCell>
        <mxCell id="uyBw6wWKs2QQ2-4XAmKk-111" value="" style="endArrow=classic;html=1;rounded=0;" parent="1" source="uyBw6wWKs2QQ2-4XAmKk-38" target="uyBw6wWKs2QQ2-4XAmKk-110" edge="1">
          <mxGeometry width="50" height="50" relative="1" as="geometry">
            <mxPoint x="392.12" y="1100" as="sourcePoint" />
            <mxPoint x="365.12" y="1140" as="targetPoint" />
          </mxGeometry>
        </mxCell>
        <mxCell id="uyBw6wWKs2QQ2-4XAmKk-113" value="Arriendo" style="rounded=0;whiteSpace=wrap;html=1;" parent="1" vertex="1">
          <mxGeometry x="700" y="360" width="100" height="40" as="geometry" />
        </mxCell>
        <mxCell id="uyBw6wWKs2QQ2-4XAmKk-124" value="giro" style="ellipse;whiteSpace=wrap;html=1;" parent="1" vertex="1">
          <mxGeometry x="270.13" y="1030" width="60" height="30" as="geometry" />
        </mxCell>
        <mxCell id="uyBw6wWKs2QQ2-4XAmKk-125" value="" style="endArrow=classic;html=1;rounded=0;" parent="1" source="uyBw6wWKs2QQ2-4XAmKk-38" target="uyBw6wWKs2QQ2-4XAmKk-124" edge="1">
          <mxGeometry width="50" height="50" relative="1" as="geometry">
            <mxPoint x="365.12" y="1086" as="sourcePoint" />
            <mxPoint x="334.12" y="1091" as="targetPoint" />
          </mxGeometry>
        </mxCell>
        <mxCell id="pE6P2WJGbJV3E8VTcfzp-1" value="numero" style="ellipse;whiteSpace=wrap;html=1;" parent="1" vertex="1">
          <mxGeometry x="320" y="770" width="70" height="30" as="geometry" />
        </mxCell>
        <mxCell id="pE6P2WJGbJV3E8VTcfzp-2" value="" style="endArrow=classic;html=1;rounded=0;" parent="1" source="KVTTR3r2XRFqggm1HM6N-13" target="pE6P2WJGbJV3E8VTcfzp-1" edge="1">
          <mxGeometry width="50" height="50" relative="1" as="geometry">
            <mxPoint x="450" y="711" as="sourcePoint" />
            <mxPoint x="533" y="714" as="targetPoint" />
          </mxGeometry>
        </mxCell>
        <mxCell id="pE6P2WJGbJV3E8VTcfzp-3" value="fecha_inicio_actividades" style="ellipse;whiteSpace=wrap;html=1;" parent="1" vertex="1">
          <mxGeometry x="454" y="1100" width="151" height="30" as="geometry" />
        </mxCell>
        <mxCell id="pE6P2WJGbJV3E8VTcfzp-4" value="" style="endArrow=classic;html=1;rounded=0;" parent="1" source="uyBw6wWKs2QQ2-4XAmKk-38" target="pE6P2WJGbJV3E8VTcfzp-3" edge="1">
          <mxGeometry width="50" height="50" relative="1" as="geometry">
            <mxPoint x="421.12" y="1100" as="sourcePoint" />
            <mxPoint x="535.6682719285806" y="1097.1876693246766" as="targetPoint" />
          </mxGeometry>
        </mxCell>
        <mxCell id="pE6P2WJGbJV3E8VTcfzp-5" value="id_propiedad" style="ellipse;whiteSpace=wrap;html=1;fontStyle=4" parent="1" vertex="1">
          <mxGeometry x="225" y="714" width="90" height="30" as="geometry" />
        </mxCell>
        <mxCell id="pE6P2WJGbJV3E8VTcfzp-6" value="" style="endArrow=classic;html=1;rounded=0;" parent="1" source="KVTTR3r2XRFqggm1HM6N-13" target="pE6P2WJGbJV3E8VTcfzp-5" edge="1">
          <mxGeometry width="50" height="50" relative="1" as="geometry">
            <mxPoint x="370" y="712" as="sourcePoint" />
            <mxPoint x="340" y="713" as="targetPoint" />
          </mxGeometry>
        </mxCell>
        <mxCell id="pE6P2WJGbJV3E8VTcfzp-7" value="id_persona" style="ellipse;whiteSpace=wrap;html=1;fontStyle=4" parent="1" vertex="1">
          <mxGeometry x="391" y="180" width="80" height="30" as="geometry" />
        </mxCell>
        <mxCell id="pE6P2WJGbJV3E8VTcfzp-8" value="" style="endArrow=classic;html=1;rounded=0;" parent="1" source="KVTTR3r2XRFqggm1HM6N-1" target="pE6P2WJGbJV3E8VTcfzp-7" edge="1">
          <mxGeometry width="50" height="50" relative="1" as="geometry">
            <mxPoint x="416" y="370" as="sourcePoint" />
            <mxPoint x="435" y="310" as="targetPoint" />
          </mxGeometry>
        </mxCell>
        <mxCell id="pE6P2WJGbJV3E8VTcfzp-10" value="razon_social" style="ellipse;whiteSpace=wrap;html=1;dashed=1;" parent="1" vertex="1">
          <mxGeometry x="471" y="210" width="90" height="30" as="geometry" />
        </mxCell>
        <mxCell id="pE6P2WJGbJV3E8VTcfzp-11" value="tipo_persona" style="ellipse;whiteSpace=wrap;html=1;" parent="1" vertex="1">
          <mxGeometry x="310" y="220" width="90" height="30" as="geometry" />
        </mxCell>
        <mxCell id="pE6P2WJGbJV3E8VTcfzp-13" value="tipo_documento" style="ellipse;whiteSpace=wrap;html=1;" parent="1" vertex="1">
          <mxGeometry x="40.00000000000001" y="280" width="110" height="30" as="geometry" />
        </mxCell>
        <mxCell id="pE6P2WJGbJV3E8VTcfzp-14" value="ruta_archivo" style="ellipse;whiteSpace=wrap;html=1;" parent="1" vertex="1">
          <mxGeometry x="-20" y="310" width="80" height="30" as="geometry" />
        </mxCell>
        <mxCell id="pE6P2WJGbJV3E8VTcfzp-15" value="fecha_emision" style="ellipse;whiteSpace=wrap;html=1;" parent="1" vertex="1">
          <mxGeometry x="157.82" y="430" width="90" height="30" as="geometry" />
        </mxCell>
        <mxCell id="pE6P2WJGbJV3E8VTcfzp-17" value="" style="endArrow=classic;html=1;rounded=0;" parent="1" source="uyBw6wWKs2QQ2-4XAmKk-16" target="pE6P2WJGbJV3E8VTcfzp-14" edge="1">
          <mxGeometry width="50" height="50" relative="1" as="geometry">
            <mxPoint x="37.82" y="414.63" as="sourcePoint" />
            <mxPoint x="-22.18" y="414.63" as="targetPoint" />
          </mxGeometry>
        </mxCell>
        <mxCell id="pE6P2WJGbJV3E8VTcfzp-18" value="" style="endArrow=classic;html=1;rounded=0;" parent="1" source="uyBw6wWKs2QQ2-4XAmKk-16" target="pE6P2WJGbJV3E8VTcfzp-13" edge="1">
          <mxGeometry width="50" height="50" relative="1" as="geometry">
            <mxPoint x="7.82" y="392" as="sourcePoint" />
            <mxPoint x="-56.18" y="404" as="targetPoint" />
          </mxGeometry>
        </mxCell>
        <mxCell id="pE6P2WJGbJV3E8VTcfzp-19" value="" style="endArrow=classic;html=1;rounded=0;" parent="1" source="uyBw6wWKs2QQ2-4XAmKk-16" target="pE6P2WJGbJV3E8VTcfzp-15" edge="1">
          <mxGeometry width="50" height="50" relative="1" as="geometry">
            <mxPoint x="7.82" y="371" as="sourcePoint" />
            <mxPoint x="-44.18" y="352" as="targetPoint" />
          </mxGeometry>
        </mxCell>
        <mxCell id="pE6P2WJGbJV3E8VTcfzp-25" value="destino" style="ellipse;whiteSpace=wrap;html=1;" parent="1" vertex="1">
          <mxGeometry x="800" y="310" width="90" height="30" as="geometry" />
        </mxCell>
        <mxCell id="pE6P2WJGbJV3E8VTcfzp-26" value="fecha_inicio" style="ellipse;whiteSpace=wrap;html=1;" parent="1" vertex="1">
          <mxGeometry x="640" y="420" width="90" height="30" as="geometry" />
        </mxCell>
        <mxCell id="pE6P2WJGbJV3E8VTcfzp-27" value="fecha_fin" style="ellipse;whiteSpace=wrap;html=1;" parent="1" vertex="1">
          <mxGeometry x="790" y="420" width="90" height="30" as="geometry" />
        </mxCell>
        <mxCell id="pE6P2WJGbJV3E8VTcfzp-30" value="" style="endArrow=classic;html=1;rounded=0;" parent="1" source="uyBw6wWKs2QQ2-4XAmKk-113" target="pE6P2WJGbJV3E8VTcfzp-25" edge="1">
          <mxGeometry width="50" height="50" relative="1" as="geometry">
            <mxPoint x="829" y="375" as="sourcePoint" />
            <mxPoint x="863" y="365" as="targetPoint" />
          </mxGeometry>
        </mxCell>
        <mxCell id="pE6P2WJGbJV3E8VTcfzp-32" value="" style="endArrow=classic;html=1;rounded=0;" parent="1" source="uyBw6wWKs2QQ2-4XAmKk-113" target="pE6P2WJGbJV3E8VTcfzp-26" edge="1">
          <mxGeometry width="50" height="50" relative="1" as="geometry">
            <mxPoint x="794" y="410" as="sourcePoint" />
            <mxPoint x="823" y="450" as="targetPoint" />
          </mxGeometry>
        </mxCell>
        <mxCell id="pE6P2WJGbJV3E8VTcfzp-33" value="" style="endArrow=classic;html=1;rounded=0;" parent="1" source="uyBw6wWKs2QQ2-4XAmKk-113" target="pE6P2WJGbJV3E8VTcfzp-27" edge="1">
          <mxGeometry width="50" height="50" relative="1" as="geometry">
            <mxPoint x="762" y="410" as="sourcePoint" />
            <mxPoint x="739" y="440" as="targetPoint" />
          </mxGeometry>
        </mxCell>
        <mxCell id="OSDOR3JBM_ej1L8ygEFd-3" style="edgeStyle=orthogonalEdgeStyle;rounded=0;orthogonalLoop=1;jettySize=auto;html=1;endArrow=none;endFill=0;" parent="1" source="pE6P2WJGbJV3E8VTcfzp-38" target="OSDOR3JBM_ej1L8ygEFd-1" edge="1">
          <mxGeometry relative="1" as="geometry" />
        </mxCell>
        <mxCell id="OSDOR3JBM_ej1L8ygEFd-7" value="N" style="edgeLabel;html=1;align=center;verticalAlign=middle;resizable=0;points=[];" parent="OSDOR3JBM_ej1L8ygEFd-3" vertex="1" connectable="0">
          <mxGeometry x="0.7378" y="1" relative="1" as="geometry">
            <mxPoint x="-1" y="-4" as="offset" />
          </mxGeometry>
        </mxCell>
        <mxCell id="pE6P2WJGbJV3E8VTcfzp-38" value="posee" style="rhombus;whiteSpace=wrap;html=1;" parent="1" vertex="1">
          <mxGeometry x="360.25" y="440" width="80" height="40" as="geometry" />
        </mxCell>
        <mxCell id="pE6P2WJGbJV3E8VTcfzp-39" value="" style="endArrow=none;html=1;rounded=0;endFill=0;" parent="1" source="KVTTR3r2XRFqggm1HM6N-1" target="pE6P2WJGbJV3E8VTcfzp-38" edge="1">
          <mxGeometry width="50" height="50" relative="1" as="geometry">
            <mxPoint x="271" y="432.3170731707319" as="sourcePoint" />
            <mxPoint x="667.8930281420533" y="238.53048245551668" as="targetPoint" />
          </mxGeometry>
        </mxCell>
        <mxCell id="pE6P2WJGbJV3E8VTcfzp-50" value="0...1" style="edgeLabel;html=1;align=center;verticalAlign=middle;resizable=0;points=[];" parent="pE6P2WJGbJV3E8VTcfzp-39" vertex="1" connectable="0">
          <mxGeometry x="-0.4667" relative="1" as="geometry">
            <mxPoint y="5" as="offset" />
          </mxGeometry>
        </mxCell>
        <mxCell id="pE6P2WJGbJV3E8VTcfzp-40" value="" style="endArrow=none;html=1;rounded=0;endFill=0;" parent="1" source="OSDOR3JBM_ej1L8ygEFd-2" target="KVTTR3r2XRFqggm1HM6N-13" edge="1">
          <mxGeometry width="50" height="50" relative="1" as="geometry">
            <mxPoint x="400" y="660" as="sourcePoint" />
            <mxPoint x="530" y="615" as="targetPoint" />
          </mxGeometry>
        </mxCell>
        <mxCell id="pE6P2WJGbJV3E8VTcfzp-51" value="0...1" style="edgeLabel;html=1;align=center;verticalAlign=middle;resizable=0;points=[];" parent="pE6P2WJGbJV3E8VTcfzp-40" vertex="1" connectable="0">
          <mxGeometry x="0.4028" y="-1" relative="1" as="geometry">
            <mxPoint as="offset" />
          </mxGeometry>
        </mxCell>
        <mxCell id="pE6P2WJGbJV3E8VTcfzp-41" value="id_comercio" style="ellipse;whiteSpace=wrap;html=1;fontStyle=4" parent="1" vertex="1">
          <mxGeometry x="458.12" y="1020" width="81" height="30" as="geometry" />
        </mxCell>
        <mxCell id="pE6P2WJGbJV3E8VTcfzp-42" value="" style="endArrow=classic;html=1;rounded=0;" parent="1" source="uyBw6wWKs2QQ2-4XAmKk-38" target="pE6P2WJGbJV3E8VTcfzp-41" edge="1">
          <mxGeometry width="50" height="50" relative="1" as="geometry">
            <mxPoint x="433.12" y="1100" as="sourcePoint" />
            <mxPoint x="505.12" y="1151" as="targetPoint" />
          </mxGeometry>
        </mxCell>
        <mxCell id="pE6P2WJGbJV3E8VTcfzp-43" value="id_documento" style="ellipse;whiteSpace=wrap;html=1;fontStyle=4" parent="1" vertex="1">
          <mxGeometry x="119.5" y="310" width="110" height="30" as="geometry" />
        </mxCell>
        <mxCell id="pE6P2WJGbJV3E8VTcfzp-44" value="" style="endArrow=classic;html=1;rounded=0;" parent="1" source="uyBw6wWKs2QQ2-4XAmKk-16" target="pE6P2WJGbJV3E8VTcfzp-43" edge="1">
          <mxGeometry width="50" height="50" relative="1" as="geometry">
            <mxPoint x="14.82" y="365" as="sourcePoint" />
            <mxPoint x="137.84053396776181" y="319.9383980967152" as="targetPoint" />
          </mxGeometry>
        </mxCell>
        <mxCell id="pE6P2WJGbJV3E8VTcfzp-56" style="edgeStyle=orthogonalEdgeStyle;rounded=0;orthogonalLoop=1;jettySize=auto;html=1;endArrow=none;endFill=0;" parent="1" source="pE6P2WJGbJV3E8VTcfzp-54" target="uyBw6wWKs2QQ2-4XAmKk-113" edge="1">
          <mxGeometry relative="1" as="geometry" />
        </mxCell>
        <mxCell id="pE6P2WJGbJV3E8VTcfzp-60" value="N" style="edgeLabel;html=1;align=center;verticalAlign=middle;resizable=0;points=[];" parent="pE6P2WJGbJV3E8VTcfzp-56" vertex="1" connectable="0">
          <mxGeometry x="0.7235" y="-1" relative="1" as="geometry">
            <mxPoint x="-8" y="-1" as="offset" />
          </mxGeometry>
        </mxCell>
        <mxCell id="pE6P2WJGbJV3E8VTcfzp-54" value="arrendamiento" style="rhombus;whiteSpace=wrap;html=1;" parent="1" vertex="1">
          <mxGeometry x="510" y="360" width="120" height="40" as="geometry" />
        </mxCell>
        <mxCell id="pE6P2WJGbJV3E8VTcfzp-58" value="rol" style="ellipse;whiteSpace=wrap;html=1;" parent="1" vertex="1">
          <mxGeometry x="590" y="315" width="50" height="30" as="geometry" />
        </mxCell>
        <mxCell id="pE6P2WJGbJV3E8VTcfzp-59" value="" style="endArrow=classic;html=1;rounded=0;" parent="1" source="pE6P2WJGbJV3E8VTcfzp-54" target="pE6P2WJGbJV3E8VTcfzp-58" edge="1">
          <mxGeometry width="50" height="50" relative="1" as="geometry">
            <mxPoint x="778" y="370" as="sourcePoint" />
            <mxPoint x="771" y="250" as="targetPoint" />
          </mxGeometry>
        </mxCell>
        <mxCell id="pE6P2WJGbJV3E8VTcfzp-61" style="edgeStyle=orthogonalEdgeStyle;rounded=0;orthogonalLoop=1;jettySize=auto;html=1;endArrow=none;endFill=0;" parent="1" source="KVTTR3r2XRFqggm1HM6N-13" target="pE6P2WJGbJV3E8VTcfzp-63" edge="1">
          <mxGeometry relative="1" as="geometry">
            <mxPoint x="440.5" y="700" as="sourcePoint" />
          </mxGeometry>
        </mxCell>
        <mxCell id="pE6P2WJGbJV3E8VTcfzp-62" value="1" style="edgeLabel;html=1;align=center;verticalAlign=middle;resizable=0;points=[];" parent="pE6P2WJGbJV3E8VTcfzp-61" vertex="1" connectable="0">
          <mxGeometry x="-0.681" relative="1" as="geometry">
            <mxPoint x="7" as="offset" />
          </mxGeometry>
        </mxCell>
        <mxCell id="pE6P2WJGbJV3E8VTcfzp-63" value="tiene contrato" style="rhombus;whiteSpace=wrap;html=1;" parent="1" vertex="1">
          <mxGeometry x="520" y="704" width="120" height="40" as="geometry" />
        </mxCell>
        <mxCell id="pE6P2WJGbJV3E8VTcfzp-64" style="edgeStyle=orthogonalEdgeStyle;rounded=0;orthogonalLoop=1;jettySize=auto;html=1;endArrow=none;endFill=0;" parent="1" source="pE6P2WJGbJV3E8VTcfzp-63" target="uyBw6wWKs2QQ2-4XAmKk-113" edge="1">
          <mxGeometry relative="1" as="geometry">
            <mxPoint x="719.5" y="540" as="targetPoint" />
          </mxGeometry>
        </mxCell>
        <mxCell id="pE6P2WJGbJV3E8VTcfzp-65" value="N" style="edgeLabel;html=1;align=center;verticalAlign=middle;resizable=0;points=[];" parent="pE6P2WJGbJV3E8VTcfzp-64" vertex="1" connectable="0">
          <mxGeometry x="0.7235" y="-1" relative="1" as="geometry">
            <mxPoint x="-1" y="-22" as="offset" />
          </mxGeometry>
        </mxCell>
        <mxCell id="ykKMeR53KBifFj36ryYj-20" style="edgeStyle=orthogonalEdgeStyle;rounded=0;orthogonalLoop=1;jettySize=auto;html=1;endArrow=none;endFill=0;" parent="1" target="ykKMeR53KBifFj36ryYj-19" edge="1">
          <mxGeometry relative="1" as="geometry">
            <mxPoint x="400" y="940" as="sourcePoint" />
          </mxGeometry>
        </mxCell>
        <mxCell id="ykKMeR53KBifFj36ryYj-27" value="1" style="edgeLabel;html=1;align=center;verticalAlign=middle;resizable=0;points=[];" parent="ykKMeR53KBifFj36ryYj-20" vertex="1" connectable="0">
          <mxGeometry x="-0.4404" relative="1" as="geometry">
            <mxPoint y="4" as="offset" />
          </mxGeometry>
        </mxCell>
        <mxCell id="ykKMeR53KBifFj36ryYj-8" value="Propiedad_Comercio" style="rounded=0;whiteSpace=wrap;html=1;dashed=1;dashPattern=8 8;" parent="1" vertex="1">
          <mxGeometry x="336.75" y="900" width="126.5" height="40" as="geometry" />
        </mxCell>
        <mxCell id="ykKMeR53KBifFj36ryYj-10" value="fecha_inicio" style="ellipse;whiteSpace=wrap;html=1;" parent="1" vertex="1">
          <mxGeometry x="471" y="950" width="80" height="30" as="geometry" />
        </mxCell>
        <mxCell id="ykKMeR53KBifFj36ryYj-11" value="" style="endArrow=classic;html=1;rounded=0;" parent="1" source="ykKMeR53KBifFj36ryYj-8" target="ykKMeR53KBifFj36ryYj-10" edge="1">
          <mxGeometry width="50" height="50" relative="1" as="geometry">
            <mxPoint x="444.87" y="1033" as="sourcePoint" />
            <mxPoint x="482.87" y="1016" as="targetPoint" />
          </mxGeometry>
        </mxCell>
        <mxCell id="ykKMeR53KBifFj36ryYj-12" value="rol" style="ellipse;whiteSpace=wrap;html=1;" parent="1" vertex="1">
          <mxGeometry x="188.32" y="910" width="59.5" height="30" as="geometry" />
        </mxCell>
        <mxCell id="ykKMeR53KBifFj36ryYj-13" value="estado" style="ellipse;whiteSpace=wrap;html=1;" parent="1" vertex="1">
          <mxGeometry x="235" y="970" width="80" height="30" as="geometry" />
        </mxCell>
        <mxCell id="ykKMeR53KBifFj36ryYj-14" value="" style="endArrow=classic;html=1;rounded=0;" parent="1" source="ykKMeR53KBifFj36ryYj-8" target="ykKMeR53KBifFj36ryYj-12" edge="1">
          <mxGeometry width="50" height="50" relative="1" as="geometry">
            <mxPoint x="364.87" y="1032" as="sourcePoint" />
            <mxPoint x="327.87" y="1015" as="targetPoint" />
          </mxGeometry>
        </mxCell>
        <mxCell id="ykKMeR53KBifFj36ryYj-15" value="" style="endArrow=classic;html=1;rounded=0;" parent="1" source="ykKMeR53KBifFj36ryYj-8" target="ykKMeR53KBifFj36ryYj-13" edge="1">
          <mxGeometry width="50" height="50" relative="1" as="geometry">
            <mxPoint x="364.87" y="1032" as="sourcePoint" />
            <mxPoint x="327.87" y="1015" as="targetPoint" />
          </mxGeometry>
        </mxCell>
        <mxCell id="ykKMeR53KBifFj36ryYj-18" style="edgeStyle=orthogonalEdgeStyle;rounded=0;orthogonalLoop=1;jettySize=auto;html=1;endArrow=none;endFill=0;" parent="1" source="ykKMeR53KBifFj36ryYj-16" target="ykKMeR53KBifFj36ryYj-8" edge="1">
          <mxGeometry relative="1" as="geometry" />
        </mxCell>
        <mxCell id="ykKMeR53KBifFj36ryYj-24" value="1" style="edgeLabel;html=1;align=center;verticalAlign=middle;resizable=0;points=[];" parent="ykKMeR53KBifFj36ryYj-18" vertex="1" connectable="0">
          <mxGeometry x="0.3038" y="1" relative="1" as="geometry">
            <mxPoint x="-1" y="-3" as="offset" />
          </mxGeometry>
        </mxCell>
        <mxCell id="ykKMeR53KBifFj36ryYj-16" value="asignada a" style="rhombus;whiteSpace=wrap;html=1;" parent="1" vertex="1">
          <mxGeometry x="340" y="810" width="120" height="40" as="geometry" />
        </mxCell>
        <mxCell id="ykKMeR53KBifFj36ryYj-21" style="edgeStyle=orthogonalEdgeStyle;rounded=0;orthogonalLoop=1;jettySize=auto;html=1;endArrow=none;endFill=0;" parent="1" source="ykKMeR53KBifFj36ryYj-19" target="uyBw6wWKs2QQ2-4XAmKk-38" edge="1">
          <mxGeometry relative="1" as="geometry">
            <mxPoint x="401.16176470588243" y="1029.9860784313723" as="sourcePoint" />
          </mxGeometry>
        </mxCell>
        <mxCell id="ykKMeR53KBifFj36ryYj-26" value="1" style="edgeLabel;html=1;align=center;verticalAlign=middle;resizable=0;points=[];" parent="ykKMeR53KBifFj36ryYj-21" vertex="1" connectable="0">
          <mxGeometry x="0.3867" relative="1" as="geometry">
            <mxPoint as="offset" />
          </mxGeometry>
        </mxCell>
        <mxCell id="F0YfxpG4NaSHhBOkq51F-1" value="0...N" style="edgeLabel;html=1;align=center;verticalAlign=middle;resizable=0;points=[];" parent="ykKMeR53KBifFj36ryYj-21" vertex="1" connectable="0">
          <mxGeometry x="0.4089" y="2" relative="1" as="geometry">
            <mxPoint as="offset" />
          </mxGeometry>
        </mxCell>
        <mxCell id="ykKMeR53KBifFj36ryYj-19" value="ubicado en" style="rhombus;whiteSpace=wrap;html=1;" parent="1" vertex="1">
          <mxGeometry x="340.25" y="980" width="120" height="40" as="geometry" />
        </mxCell>
        <mxCell id="ykKMeR53KBifFj36ryYj-32" value="area_ocupada" style="ellipse;whiteSpace=wrap;html=1;dashed=1;" parent="1" vertex="1">
          <mxGeometry x="239.94" y="860" width="90.12" height="30" as="geometry" />
        </mxCell>
        <mxCell id="ykKMeR53KBifFj36ryYj-33" value="" style="endArrow=classic;html=1;rounded=0;" parent="1" source="ykKMeR53KBifFj36ryYj-8" target="ykKMeR53KBifFj36ryYj-32" edge="1">
          <mxGeometry width="50" height="50" relative="1" as="geometry">
            <mxPoint x="347" y="918" as="sourcePoint" />
            <mxPoint x="248" y="900" as="targetPoint" />
          </mxGeometry>
        </mxCell>
        <mxCell id="ykKMeR53KBifFj36ryYj-34" value="duracion_contrato" style="ellipse;whiteSpace=wrap;html=1;dashed=1;" parent="1" vertex="1">
          <mxGeometry x="478.25" y="870" width="120" height="30" as="geometry" />
        </mxCell>
        <mxCell id="ykKMeR53KBifFj36ryYj-35" value="" style="endArrow=classic;html=1;rounded=0;" parent="1" source="ykKMeR53KBifFj36ryYj-8" target="ykKMeR53KBifFj36ryYj-34" edge="1">
          <mxGeometry width="50" height="50" relative="1" as="geometry">
            <mxPoint x="363" y="910" as="sourcePoint" />
            <mxPoint x="333" y="897" as="targetPoint" />
          </mxGeometry>
        </mxCell>
        <mxCell id="ykKMeR53KBifFj36ryYj-38" value="" style="endArrow=classic;html=1;rounded=0;" parent="1" source="ykKMeR53KBifFj36ryYj-8" target="ykKMeR53KBifFj36ryYj-39" edge="1">
          <mxGeometry width="50" height="50" relative="1" as="geometry">
            <mxPoint x="473" y="923" as="sourcePoint" />
            <mxPoint x="569" y="886" as="targetPoint" />
          </mxGeometry>
        </mxCell>
        <mxCell id="ykKMeR53KBifFj36ryYj-39" value="fecha_fin" style="ellipse;whiteSpace=wrap;html=1;" parent="1" vertex="1">
          <mxGeometry x="550" y="920" width="80" height="30" as="geometry" />
        </mxCell>
        <mxCell id="ykKMeR53KBifFj36ryYj-48" style="edgeStyle=orthogonalEdgeStyle;rounded=0;orthogonalLoop=1;jettySize=auto;html=1;endArrow=none;endFill=0;" parent="1" source="ykKMeR53KBifFj36ryYj-44" target="uyBw6wWKs2QQ2-4XAmKk-16" edge="1">
          <mxGeometry relative="1" as="geometry" />
        </mxCell>
        <mxCell id="ykKMeR53KBifFj36ryYj-50" value="N" style="edgeLabel;html=1;align=center;verticalAlign=middle;resizable=0;points=[];" parent="ykKMeR53KBifFj36ryYj-48" vertex="1" connectable="0">
          <mxGeometry x="0.8259" relative="1" as="geometry">
            <mxPoint x="5" as="offset" />
          </mxGeometry>
        </mxCell>
        <mxCell id="ykKMeR53KBifFj36ryYj-44" value="sube" style="rhombus;whiteSpace=wrap;html=1;" parent="1" vertex="1">
          <mxGeometry x="220.12" y="360" width="80" height="40" as="geometry" />
        </mxCell>
        <mxCell id="ykKMeR53KBifFj36ryYj-51" value="referencia" style="ellipse;whiteSpace=wrap;html=1;" parent="1" vertex="1">
          <mxGeometry x="235" y="760" width="70" height="30" as="geometry" />
        </mxCell>
        <mxCell id="ykKMeR53KBifFj36ryYj-52" value="" style="endArrow=classic;html=1;rounded=0;" parent="1" source="KVTTR3r2XRFqggm1HM6N-13" target="ykKMeR53KBifFj36ryYj-51" edge="1">
          <mxGeometry width="50" height="50" relative="1" as="geometry">
            <mxPoint x="390" y="754" as="sourcePoint" />
            <mxPoint x="364" y="781" as="targetPoint" />
          </mxGeometry>
        </mxCell>
        <mxCell id="njHUajwt2zUkAfSj3cnM-11" style="edgeStyle=orthogonalEdgeStyle;rounded=0;orthogonalLoop=1;jettySize=auto;html=1;endArrow=none;endFill=0;" parent="1" source="njHUajwt2zUkAfSj3cnM-1" target="njHUajwt2zUkAfSj3cnM-6" edge="1">
          <mxGeometry relative="1" as="geometry">
            <Array as="points">
              <mxPoint x="30" y="660" />
              <mxPoint x="30" y="490" />
            </Array>
          </mxGeometry>
        </mxCell>
        <mxCell id="njHUajwt2zUkAfSj3cnM-1" value="Formulario_Inscripcion" style="rounded=0;whiteSpace=wrap;html=1;" parent="1" vertex="1">
          <mxGeometry x="-130" y="640" width="140" height="40" as="geometry" />
        </mxCell>
        <mxCell id="njHUajwt2zUkAfSj3cnM-10" style="edgeStyle=orthogonalEdgeStyle;rounded=0;orthogonalLoop=1;jettySize=auto;html=1;endArrow=none;endFill=0;" parent="1" source="njHUajwt2zUkAfSj3cnM-2" target="njHUajwt2zUkAfSj3cnM-6" edge="1">
          <mxGeometry relative="1" as="geometry">
            <Array as="points">
              <mxPoint x="30" y="600" />
              <mxPoint x="30" y="490" />
            </Array>
          </mxGeometry>
        </mxCell>
        <mxCell id="njHUajwt2zUkAfSj3cnM-2" value="Contrato_Arriendo" style="rounded=0;whiteSpace=wrap;html=1;" parent="1" vertex="1">
          <mxGeometry x="-129" y="580" width="140" height="40" as="geometry" />
        </mxCell>
        <mxCell id="njHUajwt2zUkAfSj3cnM-7" style="edgeStyle=orthogonalEdgeStyle;rounded=0;orthogonalLoop=1;jettySize=auto;html=1;endArrow=none;endFill=0;" parent="1" source="njHUajwt2zUkAfSj3cnM-3" target="njHUajwt2zUkAfSj3cnM-6" edge="1">
          <mxGeometry relative="1" as="geometry">
            <Array as="points">
              <mxPoint x="30" y="420" />
              <mxPoint x="30" y="490" />
            </Array>
          </mxGeometry>
        </mxCell>
        <mxCell id="njHUajwt2zUkAfSj3cnM-3" value="Inicio_Actividades" style="rounded=0;whiteSpace=wrap;html=1;" parent="1" vertex="1">
          <mxGeometry x="-129" y="400" width="140" height="40" as="geometry" />
        </mxCell>
        <mxCell id="njHUajwt2zUkAfSj3cnM-8" style="edgeStyle=orthogonalEdgeStyle;rounded=0;orthogonalLoop=1;jettySize=auto;html=1;endArrow=none;endFill=0;" parent="1" source="njHUajwt2zUkAfSj3cnM-4" target="njHUajwt2zUkAfSj3cnM-6" edge="1">
          <mxGeometry relative="1" as="geometry">
            <Array as="points">
              <mxPoint x="30" y="480" />
              <mxPoint x="30" y="490" />
            </Array>
          </mxGeometry>
        </mxCell>
        <mxCell id="njHUajwt2zUkAfSj3cnM-4" value="Resolucion_Sanitaria" style="rounded=0;whiteSpace=wrap;html=1;" parent="1" vertex="1">
          <mxGeometry x="-130" y="460" width="140" height="40" as="geometry" />
        </mxCell>
        <mxCell id="njHUajwt2zUkAfSj3cnM-9" style="edgeStyle=orthogonalEdgeStyle;rounded=0;orthogonalLoop=1;jettySize=auto;html=1;endArrow=none;endFill=0;" parent="1" source="njHUajwt2zUkAfSj3cnM-5" target="njHUajwt2zUkAfSj3cnM-6" edge="1">
          <mxGeometry relative="1" as="geometry">
            <Array as="points">
              <mxPoint x="30" y="540" />
              <mxPoint x="30" y="490" />
            </Array>
          </mxGeometry>
        </mxCell>
        <mxCell id="njHUajwt2zUkAfSj3cnM-13" value="1" style="edgeLabel;html=1;align=center;verticalAlign=middle;resizable=0;points=[];" parent="njHUajwt2zUkAfSj3cnM-9" vertex="1" connectable="0">
          <mxGeometry x="0.8524" y="1" relative="1" as="geometry">
            <mxPoint x="-3" y="1" as="offset" />
          </mxGeometry>
        </mxCell>
        <mxCell id="njHUajwt2zUkAfSj3cnM-5" value="Avaluo_Fiscal" style="rounded=0;whiteSpace=wrap;html=1;" parent="1" vertex="1">
          <mxGeometry x="-130" y="520" width="140" height="40" as="geometry" />
        </mxCell>
        <mxCell id="njHUajwt2zUkAfSj3cnM-12" style="edgeStyle=orthogonalEdgeStyle;rounded=0;orthogonalLoop=1;jettySize=auto;html=1;endArrow=none;endFill=0;" parent="1" source="njHUajwt2zUkAfSj3cnM-6" target="uyBw6wWKs2QQ2-4XAmKk-16" edge="1">
          <mxGeometry relative="1" as="geometry">
            <Array as="points">
              <mxPoint x="118" y="490" />
            </Array>
          </mxGeometry>
        </mxCell>
        <mxCell id="njHUajwt2zUkAfSj3cnM-14" value="1" style="edgeLabel;html=1;align=center;verticalAlign=middle;resizable=0;points=[];" parent="njHUajwt2zUkAfSj3cnM-12" vertex="1" connectable="0">
          <mxGeometry x="0.8398" relative="1" as="geometry">
            <mxPoint y="7" as="offset" />
          </mxGeometry>
        </mxCell>
        <mxCell id="njHUajwt2zUkAfSj3cnM-6" value="Es un" style="triangle;whiteSpace=wrap;html=1;" parent="1" vertex="1">
          <mxGeometry x="50" y="450" width="60" height="80" as="geometry" />
        </mxCell>
        <mxCell id="OSDOR3JBM_ej1L8ygEFd-6" style="edgeStyle=orthogonalEdgeStyle;rounded=0;orthogonalLoop=1;jettySize=auto;html=1;endArrow=none;endFill=0;" parent="1" source="OSDOR3JBM_ej1L8ygEFd-1" target="OSDOR3JBM_ej1L8ygEFd-2" edge="1">
          <mxGeometry relative="1" as="geometry" />
        </mxCell>
        <mxCell id="OSDOR3JBM_ej1L8ygEFd-8" value="N" style="edgeLabel;html=1;align=center;verticalAlign=middle;resizable=0;points=[];" parent="OSDOR3JBM_ej1L8ygEFd-6" vertex="1" connectable="0">
          <mxGeometry x="-0.72" y="1" relative="1" as="geometry">
            <mxPoint as="offset" />
          </mxGeometry>
        </mxCell>
        <mxCell id="OSDOR3JBM_ej1L8ygEFd-1" value="Propiedad_Persona" style="rounded=0;whiteSpace=wrap;html=1;dashed=1;" parent="1" vertex="1">
          <mxGeometry x="340.25" y="520" width="120" height="40" as="geometry" />
        </mxCell>
        <mxCell id="OSDOR3JBM_ej1L8ygEFd-2" value="posee" style="rhombus;whiteSpace=wrap;html=1;" parent="1" vertex="1">
          <mxGeometry x="360.25" y="620" width="80" height="40" as="geometry" />
        </mxCell>
        <mxCell id="OSDOR3JBM_ej1L8ygEFd-10" value="rol" style="ellipse;whiteSpace=wrap;html=1;fontStyle=0" parent="1" vertex="1">
          <mxGeometry x="491" y="480" width="50" height="30" as="geometry" />
        </mxCell>
        <mxCell id="OSDOR3JBM_ej1L8ygEFd-11" value="&lt;p data-pm-slice=&quot;0 0 []&quot;&gt;fecha_adquisicion&lt;/p&gt;" style="ellipse;whiteSpace=wrap;html=1;fontStyle=0" parent="1" vertex="1">
          <mxGeometry x="500" y="530" width="120" height="40" as="geometry" />
        </mxCell>
        <mxCell id="OSDOR3JBM_ej1L8ygEFd-12" value="estado" style="ellipse;whiteSpace=wrap;html=1;fontStyle=0" parent="1" vertex="1">
          <mxGeometry x="255" y="510" width="50" height="30" as="geometry" />
        </mxCell>
        <mxCell id="OSDOR3JBM_ej1L8ygEFd-13" value="" style="endArrow=classic;html=1;rounded=0;" parent="1" source="OSDOR3JBM_ej1L8ygEFd-1" target="OSDOR3JBM_ej1L8ygEFd-12" edge="1">
          <mxGeometry width="50" height="50" relative="1" as="geometry">
            <mxPoint x="220.12" y="530" as="sourcePoint" />
            <mxPoint x="261.12" y="561" as="targetPoint" />
          </mxGeometry>
        </mxCell>
        <mxCell id="OSDOR3JBM_ej1L8ygEFd-14" value="" style="endArrow=classic;html=1;rounded=0;" parent="1" source="OSDOR3JBM_ej1L8ygEFd-1" target="OSDOR3JBM_ej1L8ygEFd-11" edge="1">
          <mxGeometry width="50" height="50" relative="1" as="geometry">
            <mxPoint x="350" y="542" as="sourcePoint" />
            <mxPoint x="325" y="538" as="targetPoint" />
          </mxGeometry>
        </mxCell>
        <mxCell id="OSDOR3JBM_ej1L8ygEFd-15" value="" style="endArrow=classic;html=1;rounded=0;" parent="1" source="OSDOR3JBM_ej1L8ygEFd-1" target="OSDOR3JBM_ej1L8ygEFd-10" edge="1">
          <mxGeometry width="50" height="50" relative="1" as="geometry">
            <mxPoint x="470" y="556" as="sourcePoint" />
            <mxPoint x="514" y="560" as="targetPoint" />
          </mxGeometry>
        </mxCell>
        <mxCell id="OSDOR3JBM_ej1L8ygEFd-18" value="&lt;p data-pm-slice=&quot;0 0 []&quot;&gt;porcentaje_participacion&lt;/p&gt;" style="ellipse;whiteSpace=wrap;html=1;fontStyle=0" parent="1" vertex="1">
          <mxGeometry x="190.25" y="560" width="150" height="40" as="geometry" />
        </mxCell>
        <mxCell id="OSDOR3JBM_ej1L8ygEFd-19" value="" style="endArrow=classic;html=1;rounded=0;" parent="1" source="OSDOR3JBM_ej1L8ygEFd-1" target="OSDOR3JBM_ej1L8ygEFd-18" edge="1">
          <mxGeometry width="50" height="50" relative="1" as="geometry">
            <mxPoint x="470" y="554" as="sourcePoint" />
            <mxPoint x="511" y="556" as="targetPoint" />
          </mxGeometry>
        </mxCell>
        <mxCell id="krP_IrKDcTNvJvRPcxCN-1" value="&lt;u&gt;id_arriendo&lt;/u&gt;" style="ellipse;whiteSpace=wrap;html=1;" vertex="1" parent="1">
          <mxGeometry x="705" y="285" width="90" height="30" as="geometry" />
        </mxCell>
        <mxCell id="krP_IrKDcTNvJvRPcxCN-3" value="" style="endArrow=classic;html=1;rounded=0;" edge="1" parent="1" source="uyBw6wWKs2QQ2-4XAmKk-113" target="krP_IrKDcTNvJvRPcxCN-1">
          <mxGeometry width="50" height="50" relative="1" as="geometry">
            <mxPoint x="795" y="370" as="sourcePoint" />
            <mxPoint x="833" y="348" as="targetPoint" />
          </mxGeometry>
        </mxCell>
        <mxCell id="Wm-_GZxYPKQx_k3WhI4h-1" value="estado" style="ellipse;whiteSpace=wrap;html=1;" vertex="1" parent="1">
          <mxGeometry x="491" y="645" width="50" height="30" as="geometry" />
        </mxCell>
        <mxCell id="Wm-_GZxYPKQx_k3WhI4h-2" value="" style="endArrow=classic;html=1;rounded=0;" edge="1" parent="1" source="KVTTR3r2XRFqggm1HM6N-13" target="Wm-_GZxYPKQx_k3WhI4h-1">
          <mxGeometry width="50" height="50" relative="1" as="geometry">
            <mxPoint x="447" y="754" as="sourcePoint" />
            <mxPoint x="483" y="773" as="targetPoint" />
          </mxGeometry>
        </mxCell>
        <mxCell id="CEhE7QyzoDHkpESyEWTb-1" value="estado" style="ellipse;whiteSpace=wrap;html=1;" vertex="1" parent="1">
          <mxGeometry x="840" y="365" width="70" height="30" as="geometry" />
        </mxCell>
        <mxCell id="CEhE7QyzoDHkpESyEWTb-2" value="" style="endArrow=classic;html=1;rounded=0;" edge="1" parent="1" source="uyBw6wWKs2QQ2-4XAmKk-113" target="CEhE7QyzoDHkpESyEWTb-1">
          <mxGeometry width="50" height="50" relative="1" as="geometry">
            <mxPoint x="791" y="410" as="sourcePoint" />
            <mxPoint x="824" y="432" as="targetPoint" />
          </mxGeometry>
        </mxCell>
      </root>
    </mxGraphModel>
  </diagram>
  <diagram name="diagrama-ER-FINAL" id="np8OKVHiPMJ2KGRpOivG">
    <mxGraphModel dx="583" dy="345" grid="1" gridSize="10" guides="1" tooltips="1" connect="1" arrows="1" fold="1" page="1" pageScale="1" pageWidth="827" pageHeight="1169" math="0" shadow="0">
      <root>
        <mxCell id="4ktF7YWvTKYf8_nuAXuf-0" />
        <mxCell id="4ktF7YWvTKYf8_nuAXuf-1" parent="4ktF7YWvTKYf8_nuAXuf-0" />
        <mxCell id="4ktF7YWvTKYf8_nuAXuf-10" value="Item" style="rounded=0;whiteSpace=wrap;html=1;" vertex="1" parent="4ktF7YWvTKYf8_nuAXuf-1">
          <mxGeometry x="360" y="704" width="80" height="40" as="geometry" />
        </mxCell>
        <mxCell id="4ktF7YWvTKYf8_nuAXuf-21" value="atributo 2" style="ellipse;whiteSpace=wrap;html=1;" vertex="1" parent="4ktF7YWvTKYf8_nuAXuf-1">
          <mxGeometry x="414" y="760" width="70" height="30" as="geometry" />
        </mxCell>
        <mxCell id="4ktF7YWvTKYf8_nuAXuf-30" value="" style="endArrow=classic;html=1;rounded=0;" edge="1" parent="4ktF7YWvTKYf8_nuAXuf-1" source="4ktF7YWvTKYf8_nuAXuf-10" target="4ktF7YWvTKYf8_nuAXuf-21">
          <mxGeometry width="50" height="50" relative="1" as="geometry">
            <mxPoint x="450" y="693" as="sourcePoint" />
            <mxPoint x="495" y="674" as="targetPoint" />
          </mxGeometry>
        </mxCell>
        <mxCell id="4ktF7YWvTKYf8_nuAXuf-39" value="atributo 1" style="ellipse;whiteSpace=wrap;html=1;" vertex="1" parent="4ktF7YWvTKYf8_nuAXuf-1">
          <mxGeometry x="310" y="650" width="70" height="30" as="geometry" />
        </mxCell>
        <mxCell id="4ktF7YWvTKYf8_nuAXuf-40" value="" style="endArrow=classic;html=1;rounded=0;" edge="1" parent="4ktF7YWvTKYf8_nuAXuf-1" source="4ktF7YWvTKYf8_nuAXuf-10" target="4ktF7YWvTKYf8_nuAXuf-39">
          <mxGeometry width="50" height="50" relative="1" as="geometry">
            <mxPoint x="450" y="711" as="sourcePoint" />
            <mxPoint x="533" y="714" as="targetPoint" />
          </mxGeometry>
        </mxCell>
        <mxCell id="6GOrdShvO4Jqm_7adz40-1" value="atributo 3" style="ellipse;whiteSpace=wrap;html=1;dashed=1;" vertex="1" parent="4ktF7YWvTKYf8_nuAXuf-1">
          <mxGeometry x="440" y="650" width="70" height="30" as="geometry" />
        </mxCell>
        <mxCell id="6GOrdShvO4Jqm_7adz40-2" value="" style="endArrow=classic;html=1;rounded=0;" edge="1" parent="4ktF7YWvTKYf8_nuAXuf-1" source="4ktF7YWvTKYf8_nuAXuf-10" target="6GOrdShvO4Jqm_7adz40-1">
          <mxGeometry width="50" height="50" relative="1" as="geometry">
            <mxPoint x="379" y="714" as="sourcePoint" />
            <mxPoint x="354" y="698" as="targetPoint" />
          </mxGeometry>
        </mxCell>
        <mxCell id="6GOrdShvO4Jqm_7adz40-8" value="" style="group" vertex="1" connectable="0" parent="4ktF7YWvTKYf8_nuAXuf-1">
          <mxGeometry x="250" y="734" width="80" height="36" as="geometry" />
        </mxCell>
        <mxCell id="6GOrdShvO4Jqm_7adz40-5" value="" style="ellipse;whiteSpace=wrap;html=1;fillColor=none;" vertex="1" parent="6GOrdShvO4Jqm_7adz40-8">
          <mxGeometry width="80" height="36" as="geometry" />
        </mxCell>
        <mxCell id="6GOrdShvO4Jqm_7adz40-6" value="atributo 4" style="ellipse;whiteSpace=wrap;html=1;" vertex="1" parent="6GOrdShvO4Jqm_7adz40-8">
          <mxGeometry x="5" y="3" width="70" height="30" as="geometry" />
        </mxCell>
        <mxCell id="6GOrdShvO4Jqm_7adz40-9" value="" style="endArrow=classic;html=1;rounded=0;" edge="1" parent="4ktF7YWvTKYf8_nuAXuf-1" source="4ktF7YWvTKYf8_nuAXuf-10" target="6GOrdShvO4Jqm_7adz40-5">
          <mxGeometry width="50" height="50" relative="1" as="geometry">
            <mxPoint x="391" y="714" as="sourcePoint" />
            <mxPoint x="360" y="780" as="targetPoint" />
          </mxGeometry>
        </mxCell>
      </root>
    </mxGraphModel>
  </diagram>
  <diagram id="NKGXLYFu94fewGrr_c78" name="Modelo relacional">
    <mxGraphModel dx="3160" dy="1380" grid="1" gridSize="10" guides="1" tooltips="1" connect="1" arrows="1" fold="1" page="1" pageScale="1" pageWidth="827" pageHeight="1169" math="0" shadow="0">
      <root>
        <mxCell id="0" />
        <mxCell id="1" parent="0" />
        <mxCell id="FlOmbUNTRN8qY_ve39vc-18" value="Propiedad" style="shape=table;startSize=30;container=1;collapsible=1;childLayout=tableLayout;fixedRows=1;rowLines=0;fontStyle=1;align=center;resizeLast=1;html=1;whiteSpace=wrap;" parent="1" vertex="1">
          <mxGeometry x="-80" y="830" width="180" height="210" as="geometry" />
        </mxCell>
        <mxCell id="FlOmbUNTRN8qY_ve39vc-22" value="" style="shape=tableRow;horizontal=0;startSize=0;swimlaneHead=0;swimlaneBody=0;fillColor=none;collapsible=0;dropTarget=0;points=[[0,0.5],[1,0.5]];portConstraint=eastwest;top=0;left=0;right=0;bottom=1;html=1;" parent="FlOmbUNTRN8qY_ve39vc-18" vertex="1">
          <mxGeometry y="30" width="180" height="30" as="geometry" />
        </mxCell>
        <mxCell id="FlOmbUNTRN8qY_ve39vc-23" value="PK" style="shape=partialRectangle;connectable=0;fillColor=none;top=0;left=0;bottom=0;right=0;fontStyle=1;overflow=hidden;html=1;whiteSpace=wrap;" parent="FlOmbUNTRN8qY_ve39vc-22" vertex="1">
          <mxGeometry width="60" height="30" as="geometry">
            <mxRectangle width="60" height="30" as="alternateBounds" />
          </mxGeometry>
        </mxCell>
        <mxCell id="FlOmbUNTRN8qY_ve39vc-24" value="id_propiedad" style="shape=partialRectangle;connectable=0;fillColor=none;top=0;left=0;bottom=0;right=0;align=left;spacingLeft=6;fontStyle=5;overflow=hidden;html=1;whiteSpace=wrap;" parent="FlOmbUNTRN8qY_ve39vc-22" vertex="1">
          <mxGeometry x="60" width="120" height="30" as="geometry">
            <mxRectangle width="120" height="30" as="alternateBounds" />
          </mxGeometry>
        </mxCell>
        <mxCell id="FlOmbUNTRN8qY_ve39vc-25" value="" style="shape=tableRow;horizontal=0;startSize=0;swimlaneHead=0;swimlaneBody=0;fillColor=none;collapsible=0;dropTarget=0;points=[[0,0.5],[1,0.5]];portConstraint=eastwest;top=0;left=0;right=0;bottom=0;html=1;" parent="FlOmbUNTRN8qY_ve39vc-18" vertex="1">
          <mxGeometry y="60" width="180" height="30" as="geometry" />
        </mxCell>
        <mxCell id="FlOmbUNTRN8qY_ve39vc-26" value="" style="shape=partialRectangle;connectable=0;fillColor=none;top=0;left=0;bottom=0;right=0;editable=1;overflow=hidden;html=1;whiteSpace=wrap;" parent="FlOmbUNTRN8qY_ve39vc-25" vertex="1">
          <mxGeometry width="60" height="30" as="geometry">
            <mxRectangle width="60" height="30" as="alternateBounds" />
          </mxGeometry>
        </mxCell>
        <mxCell id="FlOmbUNTRN8qY_ve39vc-27" value="uso" style="shape=partialRectangle;connectable=0;fillColor=none;top=0;left=0;bottom=0;right=0;align=left;spacingLeft=6;overflow=hidden;html=1;whiteSpace=wrap;" parent="FlOmbUNTRN8qY_ve39vc-25" vertex="1">
          <mxGeometry x="60" width="120" height="30" as="geometry">
            <mxRectangle width="120" height="30" as="alternateBounds" />
          </mxGeometry>
        </mxCell>
        <mxCell id="dkyxdNBcZrFpi1RwmVTX-1" value="" style="shape=tableRow;horizontal=0;startSize=0;swimlaneHead=0;swimlaneBody=0;fillColor=none;collapsible=0;dropTarget=0;points=[[0,0.5],[1,0.5]];portConstraint=eastwest;top=0;left=0;right=0;bottom=0;html=1;" parent="FlOmbUNTRN8qY_ve39vc-18" vertex="1">
          <mxGeometry y="90" width="180" height="30" as="geometry" />
        </mxCell>
        <mxCell id="dkyxdNBcZrFpi1RwmVTX-2" value="" style="shape=partialRectangle;connectable=0;fillColor=none;top=0;left=0;bottom=0;right=0;editable=1;overflow=hidden;html=1;whiteSpace=wrap;" parent="dkyxdNBcZrFpi1RwmVTX-1" vertex="1">
          <mxGeometry width="60" height="30" as="geometry">
            <mxRectangle width="60" height="30" as="alternateBounds" />
          </mxGeometry>
        </mxCell>
        <mxCell id="dkyxdNBcZrFpi1RwmVTX-3" value="estado" style="shape=partialRectangle;connectable=0;fillColor=none;top=0;left=0;bottom=0;right=0;align=left;spacingLeft=6;overflow=hidden;html=1;whiteSpace=wrap;" parent="dkyxdNBcZrFpi1RwmVTX-1" vertex="1">
          <mxGeometry x="60" width="120" height="30" as="geometry">
            <mxRectangle width="120" height="30" as="alternateBounds" />
          </mxGeometry>
        </mxCell>
        <mxCell id="FlOmbUNTRN8qY_ve39vc-28" value="" style="shape=tableRow;horizontal=0;startSize=0;swimlaneHead=0;swimlaneBody=0;fillColor=none;collapsible=0;dropTarget=0;points=[[0,0.5],[1,0.5]];portConstraint=eastwest;top=0;left=0;right=0;bottom=0;html=1;" parent="FlOmbUNTRN8qY_ve39vc-18" vertex="1">
          <mxGeometry y="120" width="180" height="30" as="geometry" />
        </mxCell>
        <mxCell id="FlOmbUNTRN8qY_ve39vc-29" value="" style="shape=partialRectangle;connectable=0;fillColor=none;top=0;left=0;bottom=0;right=0;editable=1;overflow=hidden;html=1;whiteSpace=wrap;" parent="FlOmbUNTRN8qY_ve39vc-28" vertex="1">
          <mxGeometry width="60" height="30" as="geometry">
            <mxRectangle width="60" height="30" as="alternateBounds" />
          </mxGeometry>
        </mxCell>
        <mxCell id="FlOmbUNTRN8qY_ve39vc-30" value="&lt;span style=&quot;text-align: center;&quot;&gt;direccion&lt;/span&gt;" style="shape=partialRectangle;connectable=0;fillColor=none;top=0;left=0;bottom=0;right=0;align=left;spacingLeft=6;overflow=hidden;html=1;whiteSpace=wrap;" parent="FlOmbUNTRN8qY_ve39vc-28" vertex="1">
          <mxGeometry x="60" width="120" height="30" as="geometry">
            <mxRectangle width="120" height="30" as="alternateBounds" />
          </mxGeometry>
        </mxCell>
        <mxCell id="KtpIpPVnYnrxe112fqjy-1" value="" style="shape=tableRow;horizontal=0;startSize=0;swimlaneHead=0;swimlaneBody=0;fillColor=none;collapsible=0;dropTarget=0;points=[[0,0.5],[1,0.5]];portConstraint=eastwest;top=0;left=0;right=0;bottom=0;html=1;" parent="FlOmbUNTRN8qY_ve39vc-18" vertex="1">
          <mxGeometry y="150" width="180" height="30" as="geometry" />
        </mxCell>
        <mxCell id="KtpIpPVnYnrxe112fqjy-2" value="" style="shape=partialRectangle;connectable=0;fillColor=none;top=0;left=0;bottom=0;right=0;editable=1;overflow=hidden;html=1;whiteSpace=wrap;" parent="KtpIpPVnYnrxe112fqjy-1" vertex="1">
          <mxGeometry width="60" height="30" as="geometry">
            <mxRectangle width="60" height="30" as="alternateBounds" />
          </mxGeometry>
        </mxCell>
        <mxCell id="KtpIpPVnYnrxe112fqjy-3" value="&lt;span style=&quot;text-align: center;&quot;&gt;numero&lt;/span&gt;" style="shape=partialRectangle;connectable=0;fillColor=none;top=0;left=0;bottom=0;right=0;align=left;spacingLeft=6;overflow=hidden;html=1;whiteSpace=wrap;" parent="KtpIpPVnYnrxe112fqjy-1" vertex="1">
          <mxGeometry x="60" width="120" height="30" as="geometry">
            <mxRectangle width="120" height="30" as="alternateBounds" />
          </mxGeometry>
        </mxCell>
        <mxCell id="bU-LCMBMi_6zM4Rd_Eef-1" value="" style="shape=tableRow;horizontal=0;startSize=0;swimlaneHead=0;swimlaneBody=0;fillColor=none;collapsible=0;dropTarget=0;points=[[0,0.5],[1,0.5]];portConstraint=eastwest;top=0;left=0;right=0;bottom=0;html=1;" parent="FlOmbUNTRN8qY_ve39vc-18" vertex="1">
          <mxGeometry y="180" width="180" height="30" as="geometry" />
        </mxCell>
        <mxCell id="bU-LCMBMi_6zM4Rd_Eef-2" value="" style="shape=partialRectangle;connectable=0;fillColor=none;top=0;left=0;bottom=0;right=0;editable=1;overflow=hidden;html=1;whiteSpace=wrap;" parent="bU-LCMBMi_6zM4Rd_Eef-1" vertex="1">
          <mxGeometry width="60" height="30" as="geometry">
            <mxRectangle width="60" height="30" as="alternateBounds" />
          </mxGeometry>
        </mxCell>
        <mxCell id="bU-LCMBMi_6zM4Rd_Eef-3" value="&lt;span style=&quot;text-align: center;&quot;&gt;referencia&lt;/span&gt;" style="shape=partialRectangle;connectable=0;fillColor=none;top=0;left=0;bottom=0;right=0;align=left;spacingLeft=6;overflow=hidden;html=1;whiteSpace=wrap;" parent="bU-LCMBMi_6zM4Rd_Eef-1" vertex="1">
          <mxGeometry x="60" width="120" height="30" as="geometry">
            <mxRectangle width="120" height="30" as="alternateBounds" />
          </mxGeometry>
        </mxCell>
        <mxCell id="G1Qgwx_9hS9hhki7m0uV-1" value="Propiedad_Comercio" style="shape=table;startSize=30;container=1;collapsible=1;childLayout=tableLayout;fixedRows=1;rowLines=0;fontStyle=1;align=center;resizeLast=1;html=1;whiteSpace=wrap;" parent="1" vertex="1">
          <mxGeometry x="-50" y="1090" width="220" height="240" as="geometry" />
        </mxCell>
        <mxCell id="6Kcx33cKzIy6eIBfaDJY-4" value="" style="shape=tableRow;horizontal=0;startSize=0;swimlaneHead=0;swimlaneBody=0;fillColor=none;collapsible=0;dropTarget=0;points=[[0,0.5],[1,0.5]];portConstraint=eastwest;top=0;left=0;right=0;bottom=0;html=1;" parent="G1Qgwx_9hS9hhki7m0uV-1" vertex="1">
          <mxGeometry y="30" width="220" height="30" as="geometry" />
        </mxCell>
        <mxCell id="6Kcx33cKzIy6eIBfaDJY-5" value="FK" style="shape=partialRectangle;connectable=0;fillColor=none;top=0;left=0;bottom=0;right=0;fontStyle=1;overflow=hidden;html=1;whiteSpace=wrap;" parent="6Kcx33cKzIy6eIBfaDJY-4" vertex="1">
          <mxGeometry width="60" height="30" as="geometry">
            <mxRectangle width="60" height="30" as="alternateBounds" />
          </mxGeometry>
        </mxCell>
        <mxCell id="6Kcx33cKzIy6eIBfaDJY-6" value="id_propiedad" style="shape=partialRectangle;connectable=0;fillColor=none;top=0;left=0;bottom=0;right=0;align=left;spacingLeft=6;fontStyle=5;overflow=hidden;html=1;whiteSpace=wrap;" parent="6Kcx33cKzIy6eIBfaDJY-4" vertex="1">
          <mxGeometry x="60" width="160" height="30" as="geometry">
            <mxRectangle width="160" height="30" as="alternateBounds" />
          </mxGeometry>
        </mxCell>
        <mxCell id="G1Qgwx_9hS9hhki7m0uV-5" value="" style="shape=tableRow;horizontal=0;startSize=0;swimlaneHead=0;swimlaneBody=0;fillColor=none;collapsible=0;dropTarget=0;points=[[0,0.5],[1,0.5]];portConstraint=eastwest;top=0;left=0;right=0;bottom=1;html=1;" parent="G1Qgwx_9hS9hhki7m0uV-1" vertex="1">
          <mxGeometry y="60" width="220" height="30" as="geometry" />
        </mxCell>
        <mxCell id="G1Qgwx_9hS9hhki7m0uV-6" value="FK" style="shape=partialRectangle;connectable=0;fillColor=none;top=0;left=0;bottom=0;right=0;fontStyle=1;overflow=hidden;html=1;whiteSpace=wrap;" parent="G1Qgwx_9hS9hhki7m0uV-5" vertex="1">
          <mxGeometry width="60" height="30" as="geometry">
            <mxRectangle width="60" height="30" as="alternateBounds" />
          </mxGeometry>
        </mxCell>
        <mxCell id="G1Qgwx_9hS9hhki7m0uV-7" value="id_comercio" style="shape=partialRectangle;connectable=0;fillColor=none;top=0;left=0;bottom=0;right=0;align=left;spacingLeft=6;fontStyle=5;overflow=hidden;html=1;whiteSpace=wrap;" parent="G1Qgwx_9hS9hhki7m0uV-5" vertex="1">
          <mxGeometry x="60" width="160" height="30" as="geometry">
            <mxRectangle width="160" height="30" as="alternateBounds" />
          </mxGeometry>
        </mxCell>
        <mxCell id="G1Qgwx_9hS9hhki7m0uV-8" value="" style="shape=tableRow;horizontal=0;startSize=0;swimlaneHead=0;swimlaneBody=0;fillColor=none;collapsible=0;dropTarget=0;points=[[0,0.5],[1,0.5]];portConstraint=eastwest;top=0;left=0;right=0;bottom=0;html=1;" parent="G1Qgwx_9hS9hhki7m0uV-1" vertex="1">
          <mxGeometry y="90" width="220" height="30" as="geometry" />
        </mxCell>
        <mxCell id="G1Qgwx_9hS9hhki7m0uV-9" value="" style="shape=partialRectangle;connectable=0;fillColor=none;top=0;left=0;bottom=0;right=0;editable=1;overflow=hidden;html=1;whiteSpace=wrap;" parent="G1Qgwx_9hS9hhki7m0uV-8" vertex="1">
          <mxGeometry width="60" height="30" as="geometry">
            <mxRectangle width="60" height="30" as="alternateBounds" />
          </mxGeometry>
        </mxCell>
        <mxCell id="G1Qgwx_9hS9hhki7m0uV-10" value="rol" style="shape=partialRectangle;connectable=0;fillColor=none;top=0;left=0;bottom=0;right=0;align=left;spacingLeft=6;overflow=hidden;html=1;whiteSpace=wrap;" parent="G1Qgwx_9hS9hhki7m0uV-8" vertex="1">
          <mxGeometry x="60" width="160" height="30" as="geometry">
            <mxRectangle width="160" height="30" as="alternateBounds" />
          </mxGeometry>
        </mxCell>
        <mxCell id="G1Qgwx_9hS9hhki7m0uV-11" value="" style="shape=tableRow;horizontal=0;startSize=0;swimlaneHead=0;swimlaneBody=0;fillColor=none;collapsible=0;dropTarget=0;points=[[0,0.5],[1,0.5]];portConstraint=eastwest;top=0;left=0;right=0;bottom=0;html=1;" parent="G1Qgwx_9hS9hhki7m0uV-1" vertex="1">
          <mxGeometry y="120" width="220" height="30" as="geometry" />
        </mxCell>
        <mxCell id="G1Qgwx_9hS9hhki7m0uV-12" value="" style="shape=partialRectangle;connectable=0;fillColor=none;top=0;left=0;bottom=0;right=0;editable=1;overflow=hidden;html=1;whiteSpace=wrap;" parent="G1Qgwx_9hS9hhki7m0uV-11" vertex="1">
          <mxGeometry width="60" height="30" as="geometry">
            <mxRectangle width="60" height="30" as="alternateBounds" />
          </mxGeometry>
        </mxCell>
        <mxCell id="G1Qgwx_9hS9hhki7m0uV-13" value="&lt;span style=&quot;text-align: center;&quot;&gt;estado&lt;/span&gt;" style="shape=partialRectangle;connectable=0;fillColor=none;top=0;left=0;bottom=0;right=0;align=left;spacingLeft=6;overflow=hidden;html=1;whiteSpace=wrap;" parent="G1Qgwx_9hS9hhki7m0uV-11" vertex="1">
          <mxGeometry x="60" width="160" height="30" as="geometry">
            <mxRectangle width="160" height="30" as="alternateBounds" />
          </mxGeometry>
        </mxCell>
        <mxCell id="G1Qgwx_9hS9hhki7m0uV-14" value="" style="shape=tableRow;horizontal=0;startSize=0;swimlaneHead=0;swimlaneBody=0;fillColor=none;collapsible=0;dropTarget=0;points=[[0,0.5],[1,0.5]];portConstraint=eastwest;top=0;left=0;right=0;bottom=0;html=1;" parent="G1Qgwx_9hS9hhki7m0uV-1" vertex="1">
          <mxGeometry y="150" width="220" height="30" as="geometry" />
        </mxCell>
        <mxCell id="G1Qgwx_9hS9hhki7m0uV-15" value="" style="shape=partialRectangle;connectable=0;fillColor=none;top=0;left=0;bottom=0;right=0;editable=1;overflow=hidden;html=1;whiteSpace=wrap;" parent="G1Qgwx_9hS9hhki7m0uV-14" vertex="1">
          <mxGeometry width="60" height="30" as="geometry">
            <mxRectangle width="60" height="30" as="alternateBounds" />
          </mxGeometry>
        </mxCell>
        <mxCell id="G1Qgwx_9hS9hhki7m0uV-16" value="&lt;span style=&quot;text-align: center;&quot;&gt;area_ocupada&lt;/span&gt;" style="shape=partialRectangle;connectable=0;fillColor=none;top=0;left=0;bottom=0;right=0;align=left;spacingLeft=6;overflow=hidden;html=1;whiteSpace=wrap;" parent="G1Qgwx_9hS9hhki7m0uV-14" vertex="1">
          <mxGeometry x="60" width="160" height="30" as="geometry">
            <mxRectangle width="160" height="30" as="alternateBounds" />
          </mxGeometry>
        </mxCell>
        <mxCell id="G1Qgwx_9hS9hhki7m0uV-17" value="" style="shape=tableRow;horizontal=0;startSize=0;swimlaneHead=0;swimlaneBody=0;fillColor=none;collapsible=0;dropTarget=0;points=[[0,0.5],[1,0.5]];portConstraint=eastwest;top=0;left=0;right=0;bottom=0;html=1;" parent="G1Qgwx_9hS9hhki7m0uV-1" vertex="1">
          <mxGeometry y="180" width="220" height="30" as="geometry" />
        </mxCell>
        <mxCell id="G1Qgwx_9hS9hhki7m0uV-18" value="" style="shape=partialRectangle;connectable=0;fillColor=none;top=0;left=0;bottom=0;right=0;editable=1;overflow=hidden;html=1;whiteSpace=wrap;" parent="G1Qgwx_9hS9hhki7m0uV-17" vertex="1">
          <mxGeometry width="60" height="30" as="geometry">
            <mxRectangle width="60" height="30" as="alternateBounds" />
          </mxGeometry>
        </mxCell>
        <mxCell id="G1Qgwx_9hS9hhki7m0uV-19" value="&lt;span style=&quot;text-align: center;&quot;&gt;fecha_inicio&lt;/span&gt;" style="shape=partialRectangle;connectable=0;fillColor=none;top=0;left=0;bottom=0;right=0;align=left;spacingLeft=6;overflow=hidden;html=1;whiteSpace=wrap;" parent="G1Qgwx_9hS9hhki7m0uV-17" vertex="1">
          <mxGeometry x="60" width="160" height="30" as="geometry">
            <mxRectangle width="160" height="30" as="alternateBounds" />
          </mxGeometry>
        </mxCell>
        <mxCell id="6Kcx33cKzIy6eIBfaDJY-30" value="" style="shape=tableRow;horizontal=0;startSize=0;swimlaneHead=0;swimlaneBody=0;fillColor=none;collapsible=0;dropTarget=0;points=[[0,0.5],[1,0.5]];portConstraint=eastwest;top=0;left=0;right=0;bottom=0;html=1;" parent="G1Qgwx_9hS9hhki7m0uV-1" vertex="1">
          <mxGeometry y="210" width="220" height="30" as="geometry" />
        </mxCell>
        <mxCell id="6Kcx33cKzIy6eIBfaDJY-31" value="" style="shape=partialRectangle;connectable=0;fillColor=none;top=0;left=0;bottom=0;right=0;editable=1;overflow=hidden;html=1;whiteSpace=wrap;" parent="6Kcx33cKzIy6eIBfaDJY-30" vertex="1">
          <mxGeometry width="60" height="30" as="geometry">
            <mxRectangle width="60" height="30" as="alternateBounds" />
          </mxGeometry>
        </mxCell>
        <mxCell id="6Kcx33cKzIy6eIBfaDJY-32" value="&lt;span style=&quot;text-align: center;&quot;&gt;fecha_fin&lt;/span&gt;" style="shape=partialRectangle;connectable=0;fillColor=none;top=0;left=0;bottom=0;right=0;align=left;spacingLeft=6;overflow=hidden;html=1;whiteSpace=wrap;" parent="6Kcx33cKzIy6eIBfaDJY-30" vertex="1">
          <mxGeometry x="60" width="160" height="30" as="geometry">
            <mxRectangle width="160" height="30" as="alternateBounds" />
          </mxGeometry>
        </mxCell>
        <mxCell id="6Kcx33cKzIy6eIBfaDJY-33" value="Comercio" style="shape=table;startSize=30;container=1;collapsible=1;childLayout=tableLayout;fixedRows=1;rowLines=0;fontStyle=1;align=center;resizeLast=1;html=1;whiteSpace=wrap;" parent="1" vertex="1">
          <mxGeometry x="250" y="980" width="220" height="210" as="geometry" />
        </mxCell>
        <mxCell id="6Kcx33cKzIy6eIBfaDJY-37" value="" style="shape=tableRow;horizontal=0;startSize=0;swimlaneHead=0;swimlaneBody=0;fillColor=none;collapsible=0;dropTarget=0;points=[[0,0.5],[1,0.5]];portConstraint=eastwest;top=0;left=0;right=0;bottom=1;html=1;" parent="6Kcx33cKzIy6eIBfaDJY-33" vertex="1">
          <mxGeometry y="30" width="220" height="30" as="geometry" />
        </mxCell>
        <mxCell id="6Kcx33cKzIy6eIBfaDJY-38" value="PK" style="shape=partialRectangle;connectable=0;fillColor=none;top=0;left=0;bottom=0;right=0;fontStyle=1;overflow=hidden;html=1;whiteSpace=wrap;" parent="6Kcx33cKzIy6eIBfaDJY-37" vertex="1">
          <mxGeometry width="60" height="30" as="geometry">
            <mxRectangle width="60" height="30" as="alternateBounds" />
          </mxGeometry>
        </mxCell>
        <mxCell id="6Kcx33cKzIy6eIBfaDJY-39" value="id_comercio" style="shape=partialRectangle;connectable=0;fillColor=none;top=0;left=0;bottom=0;right=0;align=left;spacingLeft=6;fontStyle=5;overflow=hidden;html=1;whiteSpace=wrap;" parent="6Kcx33cKzIy6eIBfaDJY-37" vertex="1">
          <mxGeometry x="60" width="160" height="30" as="geometry">
            <mxRectangle width="160" height="30" as="alternateBounds" />
          </mxGeometry>
        </mxCell>
        <mxCell id="6Kcx33cKzIy6eIBfaDJY-40" value="" style="shape=tableRow;horizontal=0;startSize=0;swimlaneHead=0;swimlaneBody=0;fillColor=none;collapsible=0;dropTarget=0;points=[[0,0.5],[1,0.5]];portConstraint=eastwest;top=0;left=0;right=0;bottom=0;html=1;" parent="6Kcx33cKzIy6eIBfaDJY-33" vertex="1">
          <mxGeometry y="60" width="220" height="30" as="geometry" />
        </mxCell>
        <mxCell id="6Kcx33cKzIy6eIBfaDJY-41" value="" style="shape=partialRectangle;connectable=0;fillColor=none;top=0;left=0;bottom=0;right=0;editable=1;overflow=hidden;html=1;whiteSpace=wrap;" parent="6Kcx33cKzIy6eIBfaDJY-40" vertex="1">
          <mxGeometry width="60" height="30" as="geometry">
            <mxRectangle width="60" height="30" as="alternateBounds" />
          </mxGeometry>
        </mxCell>
        <mxCell id="6Kcx33cKzIy6eIBfaDJY-42" value="tipo_comercio" style="shape=partialRectangle;connectable=0;fillColor=none;top=0;left=0;bottom=0;right=0;align=left;spacingLeft=6;overflow=hidden;html=1;whiteSpace=wrap;" parent="6Kcx33cKzIy6eIBfaDJY-40" vertex="1">
          <mxGeometry x="60" width="160" height="30" as="geometry">
            <mxRectangle width="160" height="30" as="alternateBounds" />
          </mxGeometry>
        </mxCell>
        <mxCell id="6Kcx33cKzIy6eIBfaDJY-43" value="" style="shape=tableRow;horizontal=0;startSize=0;swimlaneHead=0;swimlaneBody=0;fillColor=none;collapsible=0;dropTarget=0;points=[[0,0.5],[1,0.5]];portConstraint=eastwest;top=0;left=0;right=0;bottom=0;html=1;" parent="6Kcx33cKzIy6eIBfaDJY-33" vertex="1">
          <mxGeometry y="90" width="220" height="30" as="geometry" />
        </mxCell>
        <mxCell id="6Kcx33cKzIy6eIBfaDJY-44" value="" style="shape=partialRectangle;connectable=0;fillColor=none;top=0;left=0;bottom=0;right=0;editable=1;overflow=hidden;html=1;whiteSpace=wrap;" parent="6Kcx33cKzIy6eIBfaDJY-43" vertex="1">
          <mxGeometry width="60" height="30" as="geometry">
            <mxRectangle width="60" height="30" as="alternateBounds" />
          </mxGeometry>
        </mxCell>
        <mxCell id="6Kcx33cKzIy6eIBfaDJY-45" value="&lt;span style=&quot;text-align: center;&quot;&gt;activiadad_a_realizar&lt;/span&gt;" style="shape=partialRectangle;connectable=0;fillColor=none;top=0;left=0;bottom=0;right=0;align=left;spacingLeft=6;overflow=hidden;html=1;whiteSpace=wrap;" parent="6Kcx33cKzIy6eIBfaDJY-43" vertex="1">
          <mxGeometry x="60" width="160" height="30" as="geometry">
            <mxRectangle width="160" height="30" as="alternateBounds" />
          </mxGeometry>
        </mxCell>
        <mxCell id="6Kcx33cKzIy6eIBfaDJY-46" value="" style="shape=tableRow;horizontal=0;startSize=0;swimlaneHead=0;swimlaneBody=0;fillColor=none;collapsible=0;dropTarget=0;points=[[0,0.5],[1,0.5]];portConstraint=eastwest;top=0;left=0;right=0;bottom=0;html=1;" parent="6Kcx33cKzIy6eIBfaDJY-33" vertex="1">
          <mxGeometry y="120" width="220" height="30" as="geometry" />
        </mxCell>
        <mxCell id="6Kcx33cKzIy6eIBfaDJY-47" value="" style="shape=partialRectangle;connectable=0;fillColor=none;top=0;left=0;bottom=0;right=0;editable=1;overflow=hidden;html=1;whiteSpace=wrap;" parent="6Kcx33cKzIy6eIBfaDJY-46" vertex="1">
          <mxGeometry width="60" height="30" as="geometry">
            <mxRectangle width="60" height="30" as="alternateBounds" />
          </mxGeometry>
        </mxCell>
        <mxCell id="6Kcx33cKzIy6eIBfaDJY-48" value="&lt;span style=&quot;text-align: center;&quot;&gt;giro&lt;/span&gt;" style="shape=partialRectangle;connectable=0;fillColor=none;top=0;left=0;bottom=0;right=0;align=left;spacingLeft=6;overflow=hidden;html=1;whiteSpace=wrap;" parent="6Kcx33cKzIy6eIBfaDJY-46" vertex="1">
          <mxGeometry x="60" width="160" height="30" as="geometry">
            <mxRectangle width="160" height="30" as="alternateBounds" />
          </mxGeometry>
        </mxCell>
        <mxCell id="6Kcx33cKzIy6eIBfaDJY-52" value="" style="shape=tableRow;horizontal=0;startSize=0;swimlaneHead=0;swimlaneBody=0;fillColor=none;collapsible=0;dropTarget=0;points=[[0,0.5],[1,0.5]];portConstraint=eastwest;top=0;left=0;right=0;bottom=0;html=1;" parent="6Kcx33cKzIy6eIBfaDJY-33" vertex="1">
          <mxGeometry y="150" width="220" height="30" as="geometry" />
        </mxCell>
        <mxCell id="6Kcx33cKzIy6eIBfaDJY-53" value="" style="shape=partialRectangle;connectable=0;fillColor=none;top=0;left=0;bottom=0;right=0;editable=1;overflow=hidden;html=1;whiteSpace=wrap;" parent="6Kcx33cKzIy6eIBfaDJY-52" vertex="1">
          <mxGeometry width="60" height="30" as="geometry">
            <mxRectangle width="60" height="30" as="alternateBounds" />
          </mxGeometry>
        </mxCell>
        <mxCell id="6Kcx33cKzIy6eIBfaDJY-54" value="&lt;span style=&quot;text-align: center;&quot;&gt;capital&lt;/span&gt;" style="shape=partialRectangle;connectable=0;fillColor=none;top=0;left=0;bottom=0;right=0;align=left;spacingLeft=6;overflow=hidden;html=1;whiteSpace=wrap;" parent="6Kcx33cKzIy6eIBfaDJY-52" vertex="1">
          <mxGeometry x="60" width="160" height="30" as="geometry">
            <mxRectangle width="160" height="30" as="alternateBounds" />
          </mxGeometry>
        </mxCell>
        <mxCell id="6Kcx33cKzIy6eIBfaDJY-55" value="" style="shape=tableRow;horizontal=0;startSize=0;swimlaneHead=0;swimlaneBody=0;fillColor=none;collapsible=0;dropTarget=0;points=[[0,0.5],[1,0.5]];portConstraint=eastwest;top=0;left=0;right=0;bottom=0;html=1;" parent="6Kcx33cKzIy6eIBfaDJY-33" vertex="1">
          <mxGeometry y="180" width="220" height="30" as="geometry" />
        </mxCell>
        <mxCell id="6Kcx33cKzIy6eIBfaDJY-56" value="" style="shape=partialRectangle;connectable=0;fillColor=none;top=0;left=0;bottom=0;right=0;editable=1;overflow=hidden;html=1;whiteSpace=wrap;" parent="6Kcx33cKzIy6eIBfaDJY-55" vertex="1">
          <mxGeometry width="60" height="30" as="geometry">
            <mxRectangle width="60" height="30" as="alternateBounds" />
          </mxGeometry>
        </mxCell>
        <mxCell id="6Kcx33cKzIy6eIBfaDJY-57" value="&lt;div style=&quot;text-align: center;&quot;&gt;&lt;span style=&quot;background-color: initial;&quot;&gt;fecha_inicio_actividades&lt;/span&gt;&lt;/div&gt;" style="shape=partialRectangle;connectable=0;fillColor=none;top=0;left=0;bottom=0;right=0;align=left;spacingLeft=6;overflow=hidden;html=1;whiteSpace=wrap;" parent="6Kcx33cKzIy6eIBfaDJY-55" vertex="1">
          <mxGeometry x="60" width="160" height="30" as="geometry">
            <mxRectangle width="160" height="30" as="alternateBounds" />
          </mxGeometry>
        </mxCell>
        <mxCell id="hWrrgOhpKsFNN740aNGx-1" value="Persona" style="shape=table;startSize=30;container=1;collapsible=1;childLayout=tableLayout;fixedRows=1;rowLines=0;fontStyle=1;align=center;resizeLast=1;html=1;whiteSpace=wrap;" parent="1" vertex="1">
          <mxGeometry x="-360" y="840" width="180" height="270" as="geometry" />
        </mxCell>
        <mxCell id="hWrrgOhpKsFNN740aNGx-5" value="" style="shape=tableRow;horizontal=0;startSize=0;swimlaneHead=0;swimlaneBody=0;fillColor=none;collapsible=0;dropTarget=0;points=[[0,0.5],[1,0.5]];portConstraint=eastwest;top=0;left=0;right=0;bottom=1;html=1;" parent="hWrrgOhpKsFNN740aNGx-1" vertex="1">
          <mxGeometry y="30" width="180" height="30" as="geometry" />
        </mxCell>
        <mxCell id="hWrrgOhpKsFNN740aNGx-6" value="PK" style="shape=partialRectangle;connectable=0;fillColor=none;top=0;left=0;bottom=0;right=0;fontStyle=1;overflow=hidden;html=1;whiteSpace=wrap;" parent="hWrrgOhpKsFNN740aNGx-5" vertex="1">
          <mxGeometry width="60" height="30" as="geometry">
            <mxRectangle width="60" height="30" as="alternateBounds" />
          </mxGeometry>
        </mxCell>
        <mxCell id="hWrrgOhpKsFNN740aNGx-7" value="id_persona" style="shape=partialRectangle;connectable=0;fillColor=none;top=0;left=0;bottom=0;right=0;align=left;spacingLeft=6;fontStyle=5;overflow=hidden;html=1;whiteSpace=wrap;" parent="hWrrgOhpKsFNN740aNGx-5" vertex="1">
          <mxGeometry x="60" width="120" height="30" as="geometry">
            <mxRectangle width="120" height="30" as="alternateBounds" />
          </mxGeometry>
        </mxCell>
        <mxCell id="hWrrgOhpKsFNN740aNGx-14" value="" style="shape=tableRow;horizontal=0;startSize=0;swimlaneHead=0;swimlaneBody=0;fillColor=none;collapsible=0;dropTarget=0;points=[[0,0.5],[1,0.5]];portConstraint=eastwest;top=0;left=0;right=0;bottom=0;html=1;" parent="hWrrgOhpKsFNN740aNGx-1" vertex="1">
          <mxGeometry y="60" width="180" height="30" as="geometry" />
        </mxCell>
        <mxCell id="hWrrgOhpKsFNN740aNGx-15" value="" style="shape=partialRectangle;connectable=0;fillColor=none;top=0;left=0;bottom=0;right=0;editable=1;overflow=hidden;html=1;whiteSpace=wrap;" parent="hWrrgOhpKsFNN740aNGx-14" vertex="1">
          <mxGeometry width="60" height="30" as="geometry">
            <mxRectangle width="60" height="30" as="alternateBounds" />
          </mxGeometry>
        </mxCell>
        <mxCell id="hWrrgOhpKsFNN740aNGx-16" value="&lt;span style=&quot;text-align: center;&quot;&gt;rut&lt;/span&gt;" style="shape=partialRectangle;connectable=0;fillColor=none;top=0;left=0;bottom=0;right=0;align=left;spacingLeft=6;overflow=hidden;html=1;whiteSpace=wrap;" parent="hWrrgOhpKsFNN740aNGx-14" vertex="1">
          <mxGeometry x="60" width="120" height="30" as="geometry">
            <mxRectangle width="120" height="30" as="alternateBounds" />
          </mxGeometry>
        </mxCell>
        <mxCell id="hWrrgOhpKsFNN740aNGx-8" value="" style="shape=tableRow;horizontal=0;startSize=0;swimlaneHead=0;swimlaneBody=0;fillColor=none;collapsible=0;dropTarget=0;points=[[0,0.5],[1,0.5]];portConstraint=eastwest;top=0;left=0;right=0;bottom=0;html=1;" parent="hWrrgOhpKsFNN740aNGx-1" vertex="1">
          <mxGeometry y="90" width="180" height="30" as="geometry" />
        </mxCell>
        <mxCell id="hWrrgOhpKsFNN740aNGx-9" value="" style="shape=partialRectangle;connectable=0;fillColor=none;top=0;left=0;bottom=0;right=0;editable=1;overflow=hidden;html=1;whiteSpace=wrap;" parent="hWrrgOhpKsFNN740aNGx-8" vertex="1">
          <mxGeometry width="60" height="30" as="geometry">
            <mxRectangle width="60" height="30" as="alternateBounds" />
          </mxGeometry>
        </mxCell>
        <mxCell id="hWrrgOhpKsFNN740aNGx-10" value="nombres" style="shape=partialRectangle;connectable=0;fillColor=none;top=0;left=0;bottom=0;right=0;align=left;spacingLeft=6;overflow=hidden;html=1;whiteSpace=wrap;" parent="hWrrgOhpKsFNN740aNGx-8" vertex="1">
          <mxGeometry x="60" width="120" height="30" as="geometry">
            <mxRectangle width="120" height="30" as="alternateBounds" />
          </mxGeometry>
        </mxCell>
        <mxCell id="hWrrgOhpKsFNN740aNGx-11" value="" style="shape=tableRow;horizontal=0;startSize=0;swimlaneHead=0;swimlaneBody=0;fillColor=none;collapsible=0;dropTarget=0;points=[[0,0.5],[1,0.5]];portConstraint=eastwest;top=0;left=0;right=0;bottom=0;html=1;" parent="hWrrgOhpKsFNN740aNGx-1" vertex="1">
          <mxGeometry y="120" width="180" height="30" as="geometry" />
        </mxCell>
        <mxCell id="hWrrgOhpKsFNN740aNGx-12" value="" style="shape=partialRectangle;connectable=0;fillColor=none;top=0;left=0;bottom=0;right=0;editable=1;overflow=hidden;html=1;whiteSpace=wrap;" parent="hWrrgOhpKsFNN740aNGx-11" vertex="1">
          <mxGeometry width="60" height="30" as="geometry">
            <mxRectangle width="60" height="30" as="alternateBounds" />
          </mxGeometry>
        </mxCell>
        <mxCell id="hWrrgOhpKsFNN740aNGx-13" value="&lt;span style=&quot;text-align: center;&quot;&gt;apellidos&lt;/span&gt;" style="shape=partialRectangle;connectable=0;fillColor=none;top=0;left=0;bottom=0;right=0;align=left;spacingLeft=6;overflow=hidden;html=1;whiteSpace=wrap;" parent="hWrrgOhpKsFNN740aNGx-11" vertex="1">
          <mxGeometry x="60" width="120" height="30" as="geometry">
            <mxRectangle width="120" height="30" as="alternateBounds" />
          </mxGeometry>
        </mxCell>
        <mxCell id="hWrrgOhpKsFNN740aNGx-17" value="" style="shape=tableRow;horizontal=0;startSize=0;swimlaneHead=0;swimlaneBody=0;fillColor=none;collapsible=0;dropTarget=0;points=[[0,0.5],[1,0.5]];portConstraint=eastwest;top=0;left=0;right=0;bottom=0;html=1;" parent="hWrrgOhpKsFNN740aNGx-1" vertex="1">
          <mxGeometry y="150" width="180" height="30" as="geometry" />
        </mxCell>
        <mxCell id="hWrrgOhpKsFNN740aNGx-18" value="" style="shape=partialRectangle;connectable=0;fillColor=none;top=0;left=0;bottom=0;right=0;editable=1;overflow=hidden;html=1;whiteSpace=wrap;" parent="hWrrgOhpKsFNN740aNGx-17" vertex="1">
          <mxGeometry width="60" height="30" as="geometry">
            <mxRectangle width="60" height="30" as="alternateBounds" />
          </mxGeometry>
        </mxCell>
        <mxCell id="hWrrgOhpKsFNN740aNGx-19" value="&lt;span style=&quot;text-align: center;&quot;&gt;tipo_persona&lt;/span&gt;" style="shape=partialRectangle;connectable=0;fillColor=none;top=0;left=0;bottom=0;right=0;align=left;spacingLeft=6;overflow=hidden;html=1;whiteSpace=wrap;" parent="hWrrgOhpKsFNN740aNGx-17" vertex="1">
          <mxGeometry x="60" width="120" height="30" as="geometry">
            <mxRectangle width="120" height="30" as="alternateBounds" />
          </mxGeometry>
        </mxCell>
        <mxCell id="hWrrgOhpKsFNN740aNGx-20" value="" style="shape=tableRow;horizontal=0;startSize=0;swimlaneHead=0;swimlaneBody=0;fillColor=none;collapsible=0;dropTarget=0;points=[[0,0.5],[1,0.5]];portConstraint=eastwest;top=0;left=0;right=0;bottom=0;html=1;" parent="hWrrgOhpKsFNN740aNGx-1" vertex="1">
          <mxGeometry y="180" width="180" height="30" as="geometry" />
        </mxCell>
        <mxCell id="hWrrgOhpKsFNN740aNGx-21" value="" style="shape=partialRectangle;connectable=0;fillColor=none;top=0;left=0;bottom=0;right=0;editable=1;overflow=hidden;html=1;whiteSpace=wrap;" parent="hWrrgOhpKsFNN740aNGx-20" vertex="1">
          <mxGeometry width="60" height="30" as="geometry">
            <mxRectangle width="60" height="30" as="alternateBounds" />
          </mxGeometry>
        </mxCell>
        <mxCell id="hWrrgOhpKsFNN740aNGx-22" value="&lt;span style=&quot;text-align: center;&quot;&gt;email&lt;/span&gt;" style="shape=partialRectangle;connectable=0;fillColor=none;top=0;left=0;bottom=0;right=0;align=left;spacingLeft=6;overflow=hidden;html=1;whiteSpace=wrap;" parent="hWrrgOhpKsFNN740aNGx-20" vertex="1">
          <mxGeometry x="60" width="120" height="30" as="geometry">
            <mxRectangle width="120" height="30" as="alternateBounds" />
          </mxGeometry>
        </mxCell>
        <mxCell id="hWrrgOhpKsFNN740aNGx-23" value="" style="shape=tableRow;horizontal=0;startSize=0;swimlaneHead=0;swimlaneBody=0;fillColor=none;collapsible=0;dropTarget=0;points=[[0,0.5],[1,0.5]];portConstraint=eastwest;top=0;left=0;right=0;bottom=0;html=1;" parent="hWrrgOhpKsFNN740aNGx-1" vertex="1">
          <mxGeometry y="210" width="180" height="30" as="geometry" />
        </mxCell>
        <mxCell id="hWrrgOhpKsFNN740aNGx-24" value="" style="shape=partialRectangle;connectable=0;fillColor=none;top=0;left=0;bottom=0;right=0;editable=1;overflow=hidden;html=1;whiteSpace=wrap;" parent="hWrrgOhpKsFNN740aNGx-23" vertex="1">
          <mxGeometry width="60" height="30" as="geometry">
            <mxRectangle width="60" height="30" as="alternateBounds" />
          </mxGeometry>
        </mxCell>
        <mxCell id="hWrrgOhpKsFNN740aNGx-25" value="&lt;div style=&quot;text-align: center;&quot;&gt;&lt;span style=&quot;background-color: initial;&quot;&gt;telefono&lt;/span&gt;&lt;/div&gt;" style="shape=partialRectangle;connectable=0;fillColor=none;top=0;left=0;bottom=0;right=0;align=left;spacingLeft=6;overflow=hidden;html=1;whiteSpace=wrap;" parent="hWrrgOhpKsFNN740aNGx-23" vertex="1">
          <mxGeometry x="60" width="120" height="30" as="geometry">
            <mxRectangle width="120" height="30" as="alternateBounds" />
          </mxGeometry>
        </mxCell>
        <mxCell id="hWrrgOhpKsFNN740aNGx-26" value="" style="shape=tableRow;horizontal=0;startSize=0;swimlaneHead=0;swimlaneBody=0;fillColor=none;collapsible=0;dropTarget=0;points=[[0,0.5],[1,0.5]];portConstraint=eastwest;top=0;left=0;right=0;bottom=0;html=1;" parent="hWrrgOhpKsFNN740aNGx-1" vertex="1">
          <mxGeometry y="240" width="180" height="30" as="geometry" />
        </mxCell>
        <mxCell id="hWrrgOhpKsFNN740aNGx-27" value="" style="shape=partialRectangle;connectable=0;fillColor=none;top=0;left=0;bottom=0;right=0;editable=1;overflow=hidden;html=1;whiteSpace=wrap;" parent="hWrrgOhpKsFNN740aNGx-26" vertex="1">
          <mxGeometry width="60" height="30" as="geometry">
            <mxRectangle width="60" height="30" as="alternateBounds" />
          </mxGeometry>
        </mxCell>
        <mxCell id="hWrrgOhpKsFNN740aNGx-28" value="&lt;div style=&quot;text-align: center;&quot;&gt;&lt;span style=&quot;background-color: initial;&quot;&gt;razon_social&lt;/span&gt;&lt;/div&gt;" style="shape=partialRectangle;connectable=0;fillColor=none;top=0;left=0;bottom=0;right=0;align=left;spacingLeft=6;overflow=hidden;html=1;whiteSpace=wrap;" parent="hWrrgOhpKsFNN740aNGx-26" vertex="1">
          <mxGeometry x="60" width="120" height="30" as="geometry">
            <mxRectangle width="120" height="30" as="alternateBounds" />
          </mxGeometry>
        </mxCell>
        <mxCell id="hWrrgOhpKsFNN740aNGx-29" value="Documentos" style="shape=table;startSize=30;container=1;collapsible=1;childLayout=tableLayout;fixedRows=1;rowLines=0;fontStyle=1;align=center;resizeLast=1;html=1;whiteSpace=wrap;" parent="1" vertex="1">
          <mxGeometry x="-620" y="880" width="180" height="180" as="geometry" />
        </mxCell>
        <mxCell id="hWrrgOhpKsFNN740aNGx-73" value="" style="shape=tableRow;horizontal=0;startSize=0;swimlaneHead=0;swimlaneBody=0;fillColor=none;collapsible=0;dropTarget=0;points=[[0,0.5],[1,0.5]];portConstraint=eastwest;top=0;left=0;right=0;bottom=0;html=1;" parent="hWrrgOhpKsFNN740aNGx-29" vertex="1">
          <mxGeometry y="30" width="180" height="30" as="geometry" />
        </mxCell>
        <mxCell id="hWrrgOhpKsFNN740aNGx-74" value="&lt;b&gt;PK&lt;/b&gt;" style="shape=partialRectangle;connectable=0;fillColor=none;top=0;left=0;bottom=0;right=0;editable=1;overflow=hidden;html=1;whiteSpace=wrap;" parent="hWrrgOhpKsFNN740aNGx-73" vertex="1">
          <mxGeometry width="60" height="30" as="geometry">
            <mxRectangle width="60" height="30" as="alternateBounds" />
          </mxGeometry>
        </mxCell>
        <mxCell id="hWrrgOhpKsFNN740aNGx-75" value="&lt;span style=&quot;font-weight: 700; text-decoration-line: underline;&quot;&gt;id_documento&lt;/span&gt;" style="shape=partialRectangle;connectable=0;fillColor=none;top=0;left=0;bottom=0;right=0;align=left;spacingLeft=6;overflow=hidden;html=1;whiteSpace=wrap;" parent="hWrrgOhpKsFNN740aNGx-73" vertex="1">
          <mxGeometry x="60" width="120" height="30" as="geometry">
            <mxRectangle width="120" height="30" as="alternateBounds" />
          </mxGeometry>
        </mxCell>
        <mxCell id="hWrrgOhpKsFNN740aNGx-30" value="" style="shape=tableRow;horizontal=0;startSize=0;swimlaneHead=0;swimlaneBody=0;fillColor=none;collapsible=0;dropTarget=0;points=[[0,0.5],[1,0.5]];portConstraint=eastwest;top=0;left=0;right=0;bottom=1;html=1;" parent="hWrrgOhpKsFNN740aNGx-29" vertex="1">
          <mxGeometry y="60" width="180" height="30" as="geometry" />
        </mxCell>
        <mxCell id="hWrrgOhpKsFNN740aNGx-31" value="FK" style="shape=partialRectangle;connectable=0;fillColor=none;top=0;left=0;bottom=0;right=0;fontStyle=1;overflow=hidden;html=1;whiteSpace=wrap;" parent="hWrrgOhpKsFNN740aNGx-30" vertex="1">
          <mxGeometry width="60" height="30" as="geometry">
            <mxRectangle width="60" height="30" as="alternateBounds" />
          </mxGeometry>
        </mxCell>
        <mxCell id="hWrrgOhpKsFNN740aNGx-32" value="id_persona" style="shape=partialRectangle;connectable=0;fillColor=none;top=0;left=0;bottom=0;right=0;align=left;spacingLeft=6;fontStyle=5;overflow=hidden;html=1;whiteSpace=wrap;" parent="hWrrgOhpKsFNN740aNGx-30" vertex="1">
          <mxGeometry x="60" width="120" height="30" as="geometry">
            <mxRectangle width="120" height="30" as="alternateBounds" />
          </mxGeometry>
        </mxCell>
        <mxCell id="hWrrgOhpKsFNN740aNGx-33" value="" style="shape=tableRow;horizontal=0;startSize=0;swimlaneHead=0;swimlaneBody=0;fillColor=none;collapsible=0;dropTarget=0;points=[[0,0.5],[1,0.5]];portConstraint=eastwest;top=0;left=0;right=0;bottom=0;html=1;" parent="hWrrgOhpKsFNN740aNGx-29" vertex="1">
          <mxGeometry y="90" width="180" height="30" as="geometry" />
        </mxCell>
        <mxCell id="hWrrgOhpKsFNN740aNGx-34" value="" style="shape=partialRectangle;connectable=0;fillColor=none;top=0;left=0;bottom=0;right=0;editable=1;overflow=hidden;html=1;whiteSpace=wrap;" parent="hWrrgOhpKsFNN740aNGx-33" vertex="1">
          <mxGeometry width="60" height="30" as="geometry">
            <mxRectangle width="60" height="30" as="alternateBounds" />
          </mxGeometry>
        </mxCell>
        <mxCell id="hWrrgOhpKsFNN740aNGx-35" value="&lt;span style=&quot;text-align: center;&quot;&gt;tipo_documento&lt;/span&gt;" style="shape=partialRectangle;connectable=0;fillColor=none;top=0;left=0;bottom=0;right=0;align=left;spacingLeft=6;overflow=hidden;html=1;whiteSpace=wrap;" parent="hWrrgOhpKsFNN740aNGx-33" vertex="1">
          <mxGeometry x="60" width="120" height="30" as="geometry">
            <mxRectangle width="120" height="30" as="alternateBounds" />
          </mxGeometry>
        </mxCell>
        <mxCell id="hWrrgOhpKsFNN740aNGx-36" value="" style="shape=tableRow;horizontal=0;startSize=0;swimlaneHead=0;swimlaneBody=0;fillColor=none;collapsible=0;dropTarget=0;points=[[0,0.5],[1,0.5]];portConstraint=eastwest;top=0;left=0;right=0;bottom=0;html=1;" parent="hWrrgOhpKsFNN740aNGx-29" vertex="1">
          <mxGeometry y="120" width="180" height="30" as="geometry" />
        </mxCell>
        <mxCell id="hWrrgOhpKsFNN740aNGx-37" value="" style="shape=partialRectangle;connectable=0;fillColor=none;top=0;left=0;bottom=0;right=0;editable=1;overflow=hidden;html=1;whiteSpace=wrap;" parent="hWrrgOhpKsFNN740aNGx-36" vertex="1">
          <mxGeometry width="60" height="30" as="geometry">
            <mxRectangle width="60" height="30" as="alternateBounds" />
          </mxGeometry>
        </mxCell>
        <mxCell id="hWrrgOhpKsFNN740aNGx-38" value="ruta_archivo" style="shape=partialRectangle;connectable=0;fillColor=none;top=0;left=0;bottom=0;right=0;align=left;spacingLeft=6;overflow=hidden;html=1;whiteSpace=wrap;" parent="hWrrgOhpKsFNN740aNGx-36" vertex="1">
          <mxGeometry x="60" width="120" height="30" as="geometry">
            <mxRectangle width="120" height="30" as="alternateBounds" />
          </mxGeometry>
        </mxCell>
        <mxCell id="hWrrgOhpKsFNN740aNGx-39" value="" style="shape=tableRow;horizontal=0;startSize=0;swimlaneHead=0;swimlaneBody=0;fillColor=none;collapsible=0;dropTarget=0;points=[[0,0.5],[1,0.5]];portConstraint=eastwest;top=0;left=0;right=0;bottom=0;html=1;" parent="hWrrgOhpKsFNN740aNGx-29" vertex="1">
          <mxGeometry y="150" width="180" height="30" as="geometry" />
        </mxCell>
        <mxCell id="hWrrgOhpKsFNN740aNGx-40" value="" style="shape=partialRectangle;connectable=0;fillColor=none;top=0;left=0;bottom=0;right=0;editable=1;overflow=hidden;html=1;whiteSpace=wrap;" parent="hWrrgOhpKsFNN740aNGx-39" vertex="1">
          <mxGeometry width="60" height="30" as="geometry">
            <mxRectangle width="60" height="30" as="alternateBounds" />
          </mxGeometry>
        </mxCell>
        <mxCell id="hWrrgOhpKsFNN740aNGx-41" value="&lt;span style=&quot;text-align: center;&quot;&gt;fecha_emision&lt;/span&gt;" style="shape=partialRectangle;connectable=0;fillColor=none;top=0;left=0;bottom=0;right=0;align=left;spacingLeft=6;overflow=hidden;html=1;whiteSpace=wrap;" parent="hWrrgOhpKsFNN740aNGx-39" vertex="1">
          <mxGeometry x="60" width="120" height="30" as="geometry">
            <mxRectangle width="120" height="30" as="alternateBounds" />
          </mxGeometry>
        </mxCell>
        <mxCell id="hWrrgOhpKsFNN740aNGx-76" value="Propiedad_Persona" style="shape=table;startSize=30;container=1;collapsible=1;childLayout=tableLayout;fixedRows=1;rowLines=0;fontStyle=1;align=center;resizeLast=1;html=1;whiteSpace=wrap;" parent="1" vertex="1">
          <mxGeometry x="-380" y="1169" width="220" height="210" as="geometry" />
        </mxCell>
        <mxCell id="hWrrgOhpKsFNN740aNGx-77" value="" style="shape=tableRow;horizontal=0;startSize=0;swimlaneHead=0;swimlaneBody=0;fillColor=none;collapsible=0;dropTarget=0;points=[[0,0.5],[1,0.5]];portConstraint=eastwest;top=0;left=0;right=0;bottom=0;html=1;" parent="hWrrgOhpKsFNN740aNGx-76" vertex="1">
          <mxGeometry y="30" width="220" height="30" as="geometry" />
        </mxCell>
        <mxCell id="hWrrgOhpKsFNN740aNGx-78" value="FK" style="shape=partialRectangle;connectable=0;fillColor=none;top=0;left=0;bottom=0;right=0;fontStyle=1;overflow=hidden;html=1;whiteSpace=wrap;" parent="hWrrgOhpKsFNN740aNGx-77" vertex="1">
          <mxGeometry width="60" height="30" as="geometry">
            <mxRectangle width="60" height="30" as="alternateBounds" />
          </mxGeometry>
        </mxCell>
        <mxCell id="hWrrgOhpKsFNN740aNGx-79" value="id_persona" style="shape=partialRectangle;connectable=0;fillColor=none;top=0;left=0;bottom=0;right=0;align=left;spacingLeft=6;fontStyle=5;overflow=hidden;html=1;whiteSpace=wrap;" parent="hWrrgOhpKsFNN740aNGx-77" vertex="1">
          <mxGeometry x="60" width="160" height="30" as="geometry">
            <mxRectangle width="160" height="30" as="alternateBounds" />
          </mxGeometry>
        </mxCell>
        <mxCell id="hWrrgOhpKsFNN740aNGx-80" value="" style="shape=tableRow;horizontal=0;startSize=0;swimlaneHead=0;swimlaneBody=0;fillColor=none;collapsible=0;dropTarget=0;points=[[0,0.5],[1,0.5]];portConstraint=eastwest;top=0;left=0;right=0;bottom=1;html=1;" parent="hWrrgOhpKsFNN740aNGx-76" vertex="1">
          <mxGeometry y="60" width="220" height="30" as="geometry" />
        </mxCell>
        <mxCell id="hWrrgOhpKsFNN740aNGx-81" value="FK" style="shape=partialRectangle;connectable=0;fillColor=none;top=0;left=0;bottom=0;right=0;fontStyle=1;overflow=hidden;html=1;whiteSpace=wrap;" parent="hWrrgOhpKsFNN740aNGx-80" vertex="1">
          <mxGeometry width="60" height="30" as="geometry">
            <mxRectangle width="60" height="30" as="alternateBounds" />
          </mxGeometry>
        </mxCell>
        <mxCell id="hWrrgOhpKsFNN740aNGx-82" value="id_propiedad" style="shape=partialRectangle;connectable=0;fillColor=none;top=0;left=0;bottom=0;right=0;align=left;spacingLeft=6;fontStyle=5;overflow=hidden;html=1;whiteSpace=wrap;" parent="hWrrgOhpKsFNN740aNGx-80" vertex="1">
          <mxGeometry x="60" width="160" height="30" as="geometry">
            <mxRectangle width="160" height="30" as="alternateBounds" />
          </mxGeometry>
        </mxCell>
        <mxCell id="hWrrgOhpKsFNN740aNGx-83" value="" style="shape=tableRow;horizontal=0;startSize=0;swimlaneHead=0;swimlaneBody=0;fillColor=none;collapsible=0;dropTarget=0;points=[[0,0.5],[1,0.5]];portConstraint=eastwest;top=0;left=0;right=0;bottom=0;html=1;" parent="hWrrgOhpKsFNN740aNGx-76" vertex="1">
          <mxGeometry y="90" width="220" height="30" as="geometry" />
        </mxCell>
        <mxCell id="hWrrgOhpKsFNN740aNGx-84" value="" style="shape=partialRectangle;connectable=0;fillColor=none;top=0;left=0;bottom=0;right=0;editable=1;overflow=hidden;html=1;whiteSpace=wrap;" parent="hWrrgOhpKsFNN740aNGx-83" vertex="1">
          <mxGeometry width="60" height="30" as="geometry">
            <mxRectangle width="60" height="30" as="alternateBounds" />
          </mxGeometry>
        </mxCell>
        <mxCell id="hWrrgOhpKsFNN740aNGx-85" value="rol" style="shape=partialRectangle;connectable=0;fillColor=none;top=0;left=0;bottom=0;right=0;align=left;spacingLeft=6;overflow=hidden;html=1;whiteSpace=wrap;" parent="hWrrgOhpKsFNN740aNGx-83" vertex="1">
          <mxGeometry x="60" width="160" height="30" as="geometry">
            <mxRectangle width="160" height="30" as="alternateBounds" />
          </mxGeometry>
        </mxCell>
        <mxCell id="hWrrgOhpKsFNN740aNGx-86" value="" style="shape=tableRow;horizontal=0;startSize=0;swimlaneHead=0;swimlaneBody=0;fillColor=none;collapsible=0;dropTarget=0;points=[[0,0.5],[1,0.5]];portConstraint=eastwest;top=0;left=0;right=0;bottom=0;html=1;" parent="hWrrgOhpKsFNN740aNGx-76" vertex="1">
          <mxGeometry y="120" width="220" height="30" as="geometry" />
        </mxCell>
        <mxCell id="hWrrgOhpKsFNN740aNGx-87" value="" style="shape=partialRectangle;connectable=0;fillColor=none;top=0;left=0;bottom=0;right=0;editable=1;overflow=hidden;html=1;whiteSpace=wrap;" parent="hWrrgOhpKsFNN740aNGx-86" vertex="1">
          <mxGeometry width="60" height="30" as="geometry">
            <mxRectangle width="60" height="30" as="alternateBounds" />
          </mxGeometry>
        </mxCell>
        <mxCell id="hWrrgOhpKsFNN740aNGx-88" value="&lt;div style=&quot;text-align: center;&quot;&gt;&lt;span style=&quot;background-color: initial;&quot;&gt;fecha_adquisicion&lt;/span&gt;&lt;/div&gt;" style="shape=partialRectangle;connectable=0;fillColor=none;top=0;left=0;bottom=0;right=0;align=left;spacingLeft=6;overflow=hidden;html=1;whiteSpace=wrap;" parent="hWrrgOhpKsFNN740aNGx-86" vertex="1">
          <mxGeometry x="60" width="160" height="30" as="geometry">
            <mxRectangle width="160" height="30" as="alternateBounds" />
          </mxGeometry>
        </mxCell>
        <mxCell id="hWrrgOhpKsFNN740aNGx-89" value="" style="shape=tableRow;horizontal=0;startSize=0;swimlaneHead=0;swimlaneBody=0;fillColor=none;collapsible=0;dropTarget=0;points=[[0,0.5],[1,0.5]];portConstraint=eastwest;top=0;left=0;right=0;bottom=0;html=1;" parent="hWrrgOhpKsFNN740aNGx-76" vertex="1">
          <mxGeometry y="150" width="220" height="30" as="geometry" />
        </mxCell>
        <mxCell id="hWrrgOhpKsFNN740aNGx-90" value="" style="shape=partialRectangle;connectable=0;fillColor=none;top=0;left=0;bottom=0;right=0;editable=1;overflow=hidden;html=1;whiteSpace=wrap;" parent="hWrrgOhpKsFNN740aNGx-89" vertex="1">
          <mxGeometry width="60" height="30" as="geometry">
            <mxRectangle width="60" height="30" as="alternateBounds" />
          </mxGeometry>
        </mxCell>
        <mxCell id="hWrrgOhpKsFNN740aNGx-91" value="&lt;span style=&quot;text-align: center;&quot;&gt;estado&lt;/span&gt;" style="shape=partialRectangle;connectable=0;fillColor=none;top=0;left=0;bottom=0;right=0;align=left;spacingLeft=6;overflow=hidden;html=1;whiteSpace=wrap;" parent="hWrrgOhpKsFNN740aNGx-89" vertex="1">
          <mxGeometry x="60" width="160" height="30" as="geometry">
            <mxRectangle width="160" height="30" as="alternateBounds" />
          </mxGeometry>
        </mxCell>
        <mxCell id="hWrrgOhpKsFNN740aNGx-98" value="" style="shape=tableRow;horizontal=0;startSize=0;swimlaneHead=0;swimlaneBody=0;fillColor=none;collapsible=0;dropTarget=0;points=[[0,0.5],[1,0.5]];portConstraint=eastwest;top=0;left=0;right=0;bottom=0;html=1;" parent="hWrrgOhpKsFNN740aNGx-76" vertex="1">
          <mxGeometry y="180" width="220" height="30" as="geometry" />
        </mxCell>
        <mxCell id="hWrrgOhpKsFNN740aNGx-99" value="" style="shape=partialRectangle;connectable=0;fillColor=none;top=0;left=0;bottom=0;right=0;editable=1;overflow=hidden;html=1;whiteSpace=wrap;" parent="hWrrgOhpKsFNN740aNGx-98" vertex="1">
          <mxGeometry width="60" height="30" as="geometry">
            <mxRectangle width="60" height="30" as="alternateBounds" />
          </mxGeometry>
        </mxCell>
        <mxCell id="hWrrgOhpKsFNN740aNGx-100" value="&lt;span style=&quot;text-align: center;&quot;&gt;porcentaje_participacion&lt;/span&gt;" style="shape=partialRectangle;connectable=0;fillColor=none;top=0;left=0;bottom=0;right=0;align=left;spacingLeft=6;overflow=hidden;html=1;whiteSpace=wrap;" parent="hWrrgOhpKsFNN740aNGx-98" vertex="1">
          <mxGeometry x="60" width="160" height="30" as="geometry">
            <mxRectangle width="160" height="30" as="alternateBounds" />
          </mxGeometry>
        </mxCell>
        <mxCell id="hWrrgOhpKsFNN740aNGx-101" value="Arriendo" style="shape=table;startSize=30;container=1;collapsible=1;childLayout=tableLayout;fixedRows=1;rowLines=0;fontStyle=1;align=center;resizeLast=1;html=1;whiteSpace=wrap;" parent="1" vertex="1">
          <mxGeometry x="-230" y="520" width="220" height="270" as="geometry" />
        </mxCell>
        <mxCell id="s0Hmg6wKFHGZ744rITHS-4" value="" style="shape=tableRow;horizontal=0;startSize=0;swimlaneHead=0;swimlaneBody=0;fillColor=none;collapsible=0;dropTarget=0;points=[[0,0.5],[1,0.5]];portConstraint=eastwest;top=0;left=0;right=0;bottom=0;html=1;" parent="hWrrgOhpKsFNN740aNGx-101" vertex="1">
          <mxGeometry y="30" width="220" height="30" as="geometry" />
        </mxCell>
        <mxCell id="s0Hmg6wKFHGZ744rITHS-5" value="&lt;span style=&quot;font-weight: 700;&quot;&gt;PK&lt;/span&gt;" style="shape=partialRectangle;connectable=0;fillColor=none;top=0;left=0;bottom=0;right=0;editable=1;overflow=hidden;html=1;whiteSpace=wrap;" parent="s0Hmg6wKFHGZ744rITHS-4" vertex="1">
          <mxGeometry width="60" height="30" as="geometry">
            <mxRectangle width="60" height="30" as="alternateBounds" />
          </mxGeometry>
        </mxCell>
        <mxCell id="s0Hmg6wKFHGZ744rITHS-6" value="&lt;span style=&quot;font-weight: 700; text-decoration-line: underline;&quot;&gt;id_arriendo&lt;/span&gt;" style="shape=partialRectangle;connectable=0;fillColor=none;top=0;left=0;bottom=0;right=0;align=left;spacingLeft=6;overflow=hidden;html=1;whiteSpace=wrap;" parent="s0Hmg6wKFHGZ744rITHS-4" vertex="1">
          <mxGeometry x="60" width="160" height="30" as="geometry">
            <mxRectangle width="160" height="30" as="alternateBounds" />
          </mxGeometry>
        </mxCell>
        <mxCell id="hWrrgOhpKsFNN740aNGx-111" value="" style="shape=tableRow;horizontal=0;startSize=0;swimlaneHead=0;swimlaneBody=0;fillColor=none;collapsible=0;dropTarget=0;points=[[0,0.5],[1,0.5]];portConstraint=eastwest;top=0;left=0;right=0;bottom=0;html=1;" parent="hWrrgOhpKsFNN740aNGx-101" vertex="1">
          <mxGeometry y="60" width="220" height="30" as="geometry" />
        </mxCell>
        <mxCell id="hWrrgOhpKsFNN740aNGx-112" value="&lt;b&gt;FK&lt;/b&gt;" style="shape=partialRectangle;connectable=0;fillColor=none;top=0;left=0;bottom=0;right=0;editable=1;overflow=hidden;html=1;whiteSpace=wrap;" parent="hWrrgOhpKsFNN740aNGx-111" vertex="1">
          <mxGeometry width="60" height="30" as="geometry">
            <mxRectangle width="60" height="30" as="alternateBounds" />
          </mxGeometry>
        </mxCell>
        <mxCell id="hWrrgOhpKsFNN740aNGx-113" value="&lt;span style=&quot;text-align: center;&quot;&gt;&lt;b&gt;&lt;u&gt;id_persona&lt;/u&gt;&lt;/b&gt;&lt;/span&gt;" style="shape=partialRectangle;connectable=0;fillColor=none;top=0;left=0;bottom=0;right=0;align=left;spacingLeft=6;overflow=hidden;html=1;whiteSpace=wrap;" parent="hWrrgOhpKsFNN740aNGx-111" vertex="1">
          <mxGeometry x="60" width="160" height="30" as="geometry">
            <mxRectangle width="160" height="30" as="alternateBounds" />
          </mxGeometry>
        </mxCell>
        <mxCell id="hWrrgOhpKsFNN740aNGx-102" value="" style="shape=tableRow;horizontal=0;startSize=0;swimlaneHead=0;swimlaneBody=0;fillColor=none;collapsible=0;dropTarget=0;points=[[0,0.5],[1,0.5]];portConstraint=eastwest;top=0;left=0;right=0;bottom=1;html=1;" parent="hWrrgOhpKsFNN740aNGx-101" vertex="1">
          <mxGeometry y="90" width="220" height="30" as="geometry" />
        </mxCell>
        <mxCell id="hWrrgOhpKsFNN740aNGx-103" value="FK" style="shape=partialRectangle;connectable=0;fillColor=none;top=0;left=0;bottom=0;right=0;fontStyle=1;overflow=hidden;html=1;whiteSpace=wrap;" parent="hWrrgOhpKsFNN740aNGx-102" vertex="1">
          <mxGeometry width="60" height="30" as="geometry">
            <mxRectangle width="60" height="30" as="alternateBounds" />
          </mxGeometry>
        </mxCell>
        <mxCell id="hWrrgOhpKsFNN740aNGx-104" value="id_propiedad" style="shape=partialRectangle;connectable=0;fillColor=none;top=0;left=0;bottom=0;right=0;align=left;spacingLeft=6;fontStyle=5;overflow=hidden;html=1;whiteSpace=wrap;" parent="hWrrgOhpKsFNN740aNGx-102" vertex="1">
          <mxGeometry x="60" width="160" height="30" as="geometry">
            <mxRectangle width="160" height="30" as="alternateBounds" />
          </mxGeometry>
        </mxCell>
        <mxCell id="hWrrgOhpKsFNN740aNGx-105" value="" style="shape=tableRow;horizontal=0;startSize=0;swimlaneHead=0;swimlaneBody=0;fillColor=none;collapsible=0;dropTarget=0;points=[[0,0.5],[1,0.5]];portConstraint=eastwest;top=0;left=0;right=0;bottom=0;html=1;" parent="hWrrgOhpKsFNN740aNGx-101" vertex="1">
          <mxGeometry y="120" width="220" height="30" as="geometry" />
        </mxCell>
        <mxCell id="hWrrgOhpKsFNN740aNGx-106" value="" style="shape=partialRectangle;connectable=0;fillColor=none;top=0;left=0;bottom=0;right=0;editable=1;overflow=hidden;html=1;whiteSpace=wrap;" parent="hWrrgOhpKsFNN740aNGx-105" vertex="1">
          <mxGeometry width="60" height="30" as="geometry">
            <mxRectangle width="60" height="30" as="alternateBounds" />
          </mxGeometry>
        </mxCell>
        <mxCell id="hWrrgOhpKsFNN740aNGx-107" value="rol" style="shape=partialRectangle;connectable=0;fillColor=none;top=0;left=0;bottom=0;right=0;align=left;spacingLeft=6;overflow=hidden;html=1;whiteSpace=wrap;" parent="hWrrgOhpKsFNN740aNGx-105" vertex="1">
          <mxGeometry x="60" width="160" height="30" as="geometry">
            <mxRectangle width="160" height="30" as="alternateBounds" />
          </mxGeometry>
        </mxCell>
        <mxCell id="hWrrgOhpKsFNN740aNGx-108" value="" style="shape=tableRow;horizontal=0;startSize=0;swimlaneHead=0;swimlaneBody=0;fillColor=none;collapsible=0;dropTarget=0;points=[[0,0.5],[1,0.5]];portConstraint=eastwest;top=0;left=0;right=0;bottom=0;html=1;" parent="hWrrgOhpKsFNN740aNGx-101" vertex="1">
          <mxGeometry y="150" width="220" height="30" as="geometry" />
        </mxCell>
        <mxCell id="hWrrgOhpKsFNN740aNGx-109" value="" style="shape=partialRectangle;connectable=0;fillColor=none;top=0;left=0;bottom=0;right=0;editable=1;overflow=hidden;html=1;whiteSpace=wrap;" parent="hWrrgOhpKsFNN740aNGx-108" vertex="1">
          <mxGeometry width="60" height="30" as="geometry">
            <mxRectangle width="60" height="30" as="alternateBounds" />
          </mxGeometry>
        </mxCell>
        <mxCell id="hWrrgOhpKsFNN740aNGx-110" value="&lt;span style=&quot;text-align: center;&quot;&gt;fecha_inicio&lt;/span&gt;" style="shape=partialRectangle;connectable=0;fillColor=none;top=0;left=0;bottom=0;right=0;align=left;spacingLeft=6;overflow=hidden;html=1;whiteSpace=wrap;" parent="hWrrgOhpKsFNN740aNGx-108" vertex="1">
          <mxGeometry x="60" width="160" height="30" as="geometry">
            <mxRectangle width="160" height="30" as="alternateBounds" />
          </mxGeometry>
        </mxCell>
        <mxCell id="hWrrgOhpKsFNN740aNGx-114" value="" style="shape=tableRow;horizontal=0;startSize=0;swimlaneHead=0;swimlaneBody=0;fillColor=none;collapsible=0;dropTarget=0;points=[[0,0.5],[1,0.5]];portConstraint=eastwest;top=0;left=0;right=0;bottom=0;html=1;" parent="hWrrgOhpKsFNN740aNGx-101" vertex="1">
          <mxGeometry y="180" width="220" height="30" as="geometry" />
        </mxCell>
        <mxCell id="hWrrgOhpKsFNN740aNGx-115" value="" style="shape=partialRectangle;connectable=0;fillColor=none;top=0;left=0;bottom=0;right=0;editable=1;overflow=hidden;html=1;whiteSpace=wrap;" parent="hWrrgOhpKsFNN740aNGx-114" vertex="1">
          <mxGeometry width="60" height="30" as="geometry">
            <mxRectangle width="60" height="30" as="alternateBounds" />
          </mxGeometry>
        </mxCell>
        <mxCell id="hWrrgOhpKsFNN740aNGx-116" value="&lt;span style=&quot;text-align: center;&quot;&gt;fecha_fin&lt;/span&gt;" style="shape=partialRectangle;connectable=0;fillColor=none;top=0;left=0;bottom=0;right=0;align=left;spacingLeft=6;overflow=hidden;html=1;whiteSpace=wrap;" parent="hWrrgOhpKsFNN740aNGx-114" vertex="1">
          <mxGeometry x="60" width="160" height="30" as="geometry">
            <mxRectangle width="160" height="30" as="alternateBounds" />
          </mxGeometry>
        </mxCell>
        <mxCell id="hWrrgOhpKsFNN740aNGx-117" value="" style="shape=tableRow;horizontal=0;startSize=0;swimlaneHead=0;swimlaneBody=0;fillColor=none;collapsible=0;dropTarget=0;points=[[0,0.5],[1,0.5]];portConstraint=eastwest;top=0;left=0;right=0;bottom=0;html=1;" parent="hWrrgOhpKsFNN740aNGx-101" vertex="1">
          <mxGeometry y="210" width="220" height="30" as="geometry" />
        </mxCell>
        <mxCell id="hWrrgOhpKsFNN740aNGx-118" value="" style="shape=partialRectangle;connectable=0;fillColor=none;top=0;left=0;bottom=0;right=0;editable=1;overflow=hidden;html=1;whiteSpace=wrap;" parent="hWrrgOhpKsFNN740aNGx-117" vertex="1">
          <mxGeometry width="60" height="30" as="geometry">
            <mxRectangle width="60" height="30" as="alternateBounds" />
          </mxGeometry>
        </mxCell>
        <mxCell id="hWrrgOhpKsFNN740aNGx-119" value="&lt;div style=&quot;text-align: center;&quot;&gt;&lt;span style=&quot;background-color: initial;&quot;&gt;destino&lt;/span&gt;&lt;/div&gt;" style="shape=partialRectangle;connectable=0;fillColor=none;top=0;left=0;bottom=0;right=0;align=left;spacingLeft=6;overflow=hidden;html=1;whiteSpace=wrap;" parent="hWrrgOhpKsFNN740aNGx-117" vertex="1">
          <mxGeometry x="60" width="160" height="30" as="geometry">
            <mxRectangle width="160" height="30" as="alternateBounds" />
          </mxGeometry>
        </mxCell>
        <mxCell id="MRH9PYbl-j_nJ5N37Rkg-1" value="" style="shape=tableRow;horizontal=0;startSize=0;swimlaneHead=0;swimlaneBody=0;fillColor=none;collapsible=0;dropTarget=0;points=[[0,0.5],[1,0.5]];portConstraint=eastwest;top=0;left=0;right=0;bottom=0;html=1;" parent="hWrrgOhpKsFNN740aNGx-101" vertex="1">
          <mxGeometry y="240" width="220" height="30" as="geometry" />
        </mxCell>
        <mxCell id="MRH9PYbl-j_nJ5N37Rkg-2" value="" style="shape=partialRectangle;connectable=0;fillColor=none;top=0;left=0;bottom=0;right=0;editable=1;overflow=hidden;html=1;whiteSpace=wrap;" parent="MRH9PYbl-j_nJ5N37Rkg-1" vertex="1">
          <mxGeometry width="60" height="30" as="geometry">
            <mxRectangle width="60" height="30" as="alternateBounds" />
          </mxGeometry>
        </mxCell>
        <mxCell id="MRH9PYbl-j_nJ5N37Rkg-3" value="&lt;div style=&quot;text-align: center;&quot;&gt;&lt;span style=&quot;background-color: initial;&quot;&gt;estado&lt;/span&gt;&lt;/div&gt;" style="shape=partialRectangle;connectable=0;fillColor=none;top=0;left=0;bottom=0;right=0;align=left;spacingLeft=6;overflow=hidden;html=1;whiteSpace=wrap;" parent="MRH9PYbl-j_nJ5N37Rkg-1" vertex="1">
          <mxGeometry x="60" width="160" height="30" as="geometry">
            <mxRectangle width="160" height="30" as="alternateBounds" />
          </mxGeometry>
        </mxCell>
        <mxCell id="E_XNWqMjXSer2iao_9t1-1" value="" style="edgeStyle=entityRelationEdgeStyle;fontSize=12;html=1;endArrow=ERoneToMany;startArrow=ERmandOne;rounded=0;" parent="1" source="hWrrgOhpKsFNN740aNGx-5" target="hWrrgOhpKsFNN740aNGx-30" edge="1">
          <mxGeometry width="100" height="100" relative="1" as="geometry">
            <mxPoint x="-420" y="1090" as="sourcePoint" />
            <mxPoint x="-320" y="990" as="targetPoint" />
          </mxGeometry>
        </mxCell>
        <mxCell id="E_XNWqMjXSer2iao_9t1-3" value="" style="edgeStyle=entityRelationEdgeStyle;fontSize=12;html=1;endArrow=ERoneToMany;startArrow=ERzeroToOne;rounded=0;" parent="1" source="hWrrgOhpKsFNN740aNGx-5" target="hWrrgOhpKsFNN740aNGx-77" edge="1">
          <mxGeometry width="100" height="100" relative="1" as="geometry">
            <mxPoint x="-280" y="1130" as="sourcePoint" />
            <mxPoint x="-180" y="1030" as="targetPoint" />
          </mxGeometry>
        </mxCell>
        <mxCell id="6YQWYZ_NFrbOAG40FCfQ-1" value="" style="fontSize=12;html=1;endArrow=ERoneToMany;startArrow=ERzeroToOne;rounded=0;" parent="1" edge="1">
          <mxGeometry width="100" height="100" relative="1" as="geometry">
            <mxPoint x="-80" y="885" as="sourcePoint" />
            <mxPoint x="-160" y="1244" as="targetPoint" />
            <Array as="points">
              <mxPoint x="-110" y="885" />
              <mxPoint x="-110" y="1243" />
            </Array>
          </mxGeometry>
        </mxCell>
        <mxCell id="s0Hmg6wKFHGZ744rITHS-1" value="" style="edgeStyle=orthogonalEdgeStyle;fontSize=12;html=1;endArrow=ERoneToMany;startArrow=ERzeroToOne;rounded=0;" parent="1" source="FlOmbUNTRN8qY_ve39vc-22" target="6Kcx33cKzIy6eIBfaDJY-4" edge="1">
          <mxGeometry width="100" height="100" relative="1" as="geometry">
            <mxPoint x="400" y="840" as="sourcePoint" />
            <mxPoint x="320" y="850" as="targetPoint" />
            <Array as="points">
              <mxPoint x="-110" y="885" />
              <mxPoint x="-110" y="1135" />
            </Array>
          </mxGeometry>
        </mxCell>
        <mxCell id="s0Hmg6wKFHGZ744rITHS-3" value="" style="edgeStyle=entityRelationEdgeStyle;fontSize=12;html=1;endArrow=ERoneToMany;startArrow=ERzeroToOne;rounded=0;" parent="1" source="6Kcx33cKzIy6eIBfaDJY-37" target="G1Qgwx_9hS9hhki7m0uV-5" edge="1">
          <mxGeometry width="100" height="100" relative="1" as="geometry">
            <mxPoint x="110" y="895" as="sourcePoint" />
            <mxPoint x="140" y="1224" as="targetPoint" />
          </mxGeometry>
        </mxCell>
        <mxCell id="gIN6gWQVv91XBvnCTcKV-1" value="" style="fontSize=12;html=1;endArrow=ERoneToMany;startArrow=ERmandOne;rounded=0;edgeStyle=orthogonalEdgeStyle;" parent="1" source="hWrrgOhpKsFNN740aNGx-5" target="hWrrgOhpKsFNN740aNGx-111" edge="1">
          <mxGeometry width="100" height="100" relative="1" as="geometry">
            <mxPoint x="-350" y="895" as="sourcePoint" />
            <mxPoint x="-430" y="965" as="targetPoint" />
            <Array as="points">
              <mxPoint x="-380" y="885" />
              <mxPoint x="-380" y="590" />
            </Array>
          </mxGeometry>
        </mxCell>
        <mxCell id="gIN6gWQVv91XBvnCTcKV-2" value="" style="fontSize=12;html=1;endArrow=ERoneToMany;startArrow=ERmandOne;rounded=0;edgeStyle=orthogonalEdgeStyle;" parent="1" source="FlOmbUNTRN8qY_ve39vc-22" target="s0Hmg6wKFHGZ744rITHS-4" edge="1">
          <mxGeometry width="100" height="100" relative="1" as="geometry">
            <mxPoint x="160" y="850" as="sourcePoint" />
            <mxPoint x="290" y="580" as="targetPoint" />
            <Array as="points">
              <mxPoint x="140" y="885" />
              <mxPoint x="140" y="565" />
            </Array>
          </mxGeometry>
        </mxCell>
      </root>
    </mxGraphModel>
  </diagram>
  <diagram name="Modelo relacional-Final" id="krtvAdpmqAd1RaxmRrte">
    <mxGraphModel dx="3356" dy="518" grid="1" gridSize="10" guides="1" tooltips="1" connect="1" arrows="1" fold="1" page="1" pageScale="1" pageWidth="827" pageHeight="1169" math="0" shadow="0">
      <root>
        <mxCell id="a-YDeIl8c_i9f8LD-865-0" />
        <mxCell id="a-YDeIl8c_i9f8LD-865-1" parent="a-YDeIl8c_i9f8LD-865-0" />
        <mxCell id="qg1jBpmGvNMsKy6106Qw-0" value="&lt;span style=&quot;font-weight: 400;&quot;&gt;Item&lt;/span&gt;" style="shape=table;startSize=30;container=1;collapsible=1;childLayout=tableLayout;fixedRows=1;rowLines=0;fontStyle=1;align=center;resizeLast=1;html=1;whiteSpace=wrap;" vertex="1" parent="a-YDeIl8c_i9f8LD-865-1">
          <mxGeometry x="-1750" y="830" width="220" height="180" as="geometry" />
        </mxCell>
        <mxCell id="qg1jBpmGvNMsKy6106Qw-4" value="" style="shape=tableRow;horizontal=0;startSize=0;swimlaneHead=0;swimlaneBody=0;fillColor=none;collapsible=0;dropTarget=0;points=[[0,0.5],[1,0.5]];portConstraint=eastwest;top=0;left=0;right=0;bottom=1;html=1;" vertex="1" parent="qg1jBpmGvNMsKy6106Qw-0">
          <mxGeometry y="30" width="220" height="30" as="geometry" />
        </mxCell>
        <mxCell id="qg1jBpmGvNMsKy6106Qw-5" value="PK" style="shape=partialRectangle;connectable=0;fillColor=none;top=0;left=0;bottom=0;right=0;fontStyle=1;overflow=hidden;html=1;whiteSpace=wrap;" vertex="1" parent="qg1jBpmGvNMsKy6106Qw-4">
          <mxGeometry width="60" height="30" as="geometry">
            <mxRectangle width="60" height="30" as="alternateBounds" />
          </mxGeometry>
        </mxCell>
        <mxCell id="qg1jBpmGvNMsKy6106Qw-6" value="id_item" style="shape=partialRectangle;connectable=0;fillColor=none;top=0;left=0;bottom=0;right=0;align=left;spacingLeft=6;fontStyle=5;overflow=hidden;html=1;whiteSpace=wrap;" vertex="1" parent="qg1jBpmGvNMsKy6106Qw-4">
          <mxGeometry x="60" width="160" height="30" as="geometry">
            <mxRectangle width="160" height="30" as="alternateBounds" />
          </mxGeometry>
        </mxCell>
        <mxCell id="qg1jBpmGvNMsKy6106Qw-7" value="" style="shape=tableRow;horizontal=0;startSize=0;swimlaneHead=0;swimlaneBody=0;fillColor=none;collapsible=0;dropTarget=0;points=[[0,0.5],[1,0.5]];portConstraint=eastwest;top=0;left=0;right=0;bottom=0;html=1;" vertex="1" parent="qg1jBpmGvNMsKy6106Qw-0">
          <mxGeometry y="60" width="220" height="30" as="geometry" />
        </mxCell>
        <mxCell id="qg1jBpmGvNMsKy6106Qw-8" value="" style="shape=partialRectangle;connectable=0;fillColor=none;top=0;left=0;bottom=0;right=0;editable=1;overflow=hidden;html=1;whiteSpace=wrap;" vertex="1" parent="qg1jBpmGvNMsKy6106Qw-7">
          <mxGeometry width="60" height="30" as="geometry">
            <mxRectangle width="60" height="30" as="alternateBounds" />
          </mxGeometry>
        </mxCell>
        <mxCell id="qg1jBpmGvNMsKy6106Qw-9" value="&lt;span style=&quot;text-align: center;&quot;&gt;atributo 1&lt;/span&gt;" style="shape=partialRectangle;connectable=0;fillColor=none;top=0;left=0;bottom=0;right=0;align=left;spacingLeft=6;overflow=hidden;html=1;whiteSpace=wrap;" vertex="1" parent="qg1jBpmGvNMsKy6106Qw-7">
          <mxGeometry x="60" width="160" height="30" as="geometry">
            <mxRectangle width="160" height="30" as="alternateBounds" />
          </mxGeometry>
        </mxCell>
        <mxCell id="qg1jBpmGvNMsKy6106Qw-10" value="" style="shape=tableRow;horizontal=0;startSize=0;swimlaneHead=0;swimlaneBody=0;fillColor=none;collapsible=0;dropTarget=0;points=[[0,0.5],[1,0.5]];portConstraint=eastwest;top=0;left=0;right=0;bottom=0;html=1;" vertex="1" parent="qg1jBpmGvNMsKy6106Qw-0">
          <mxGeometry y="90" width="220" height="30" as="geometry" />
        </mxCell>
        <mxCell id="qg1jBpmGvNMsKy6106Qw-11" value="" style="shape=partialRectangle;connectable=0;fillColor=none;top=0;left=0;bottom=0;right=0;editable=1;overflow=hidden;html=1;whiteSpace=wrap;" vertex="1" parent="qg1jBpmGvNMsKy6106Qw-10">
          <mxGeometry width="60" height="30" as="geometry">
            <mxRectangle width="60" height="30" as="alternateBounds" />
          </mxGeometry>
        </mxCell>
        <mxCell id="qg1jBpmGvNMsKy6106Qw-12" value="&lt;div style=&quot;text-align: center;&quot;&gt;atributo 2&lt;br&gt;&lt;/div&gt;" style="shape=partialRectangle;connectable=0;fillColor=none;top=0;left=0;bottom=0;right=0;align=left;spacingLeft=6;overflow=hidden;html=1;whiteSpace=wrap;" vertex="1" parent="qg1jBpmGvNMsKy6106Qw-10">
          <mxGeometry x="60" width="160" height="30" as="geometry">
            <mxRectangle width="160" height="30" as="alternateBounds" />
          </mxGeometry>
        </mxCell>
        <mxCell id="qg1jBpmGvNMsKy6106Qw-13" value="" style="shape=tableRow;horizontal=0;startSize=0;swimlaneHead=0;swimlaneBody=0;fillColor=none;collapsible=0;dropTarget=0;points=[[0,0.5],[1,0.5]];portConstraint=eastwest;top=0;left=0;right=0;bottom=0;html=1;" vertex="1" parent="qg1jBpmGvNMsKy6106Qw-0">
          <mxGeometry y="120" width="220" height="30" as="geometry" />
        </mxCell>
        <mxCell id="qg1jBpmGvNMsKy6106Qw-14" value="" style="shape=partialRectangle;connectable=0;fillColor=none;top=0;left=0;bottom=0;right=0;editable=1;overflow=hidden;html=1;whiteSpace=wrap;" vertex="1" parent="qg1jBpmGvNMsKy6106Qw-13">
          <mxGeometry width="60" height="30" as="geometry">
            <mxRectangle width="60" height="30" as="alternateBounds" />
          </mxGeometry>
        </mxCell>
        <mxCell id="qg1jBpmGvNMsKy6106Qw-15" value="&lt;span style=&quot;text-align: center;&quot;&gt;atributo 3&lt;/span&gt;" style="shape=partialRectangle;connectable=0;fillColor=none;top=0;left=0;bottom=0;right=0;align=left;spacingLeft=6;overflow=hidden;html=1;whiteSpace=wrap;" vertex="1" parent="qg1jBpmGvNMsKy6106Qw-13">
          <mxGeometry x="60" width="160" height="30" as="geometry">
            <mxRectangle width="160" height="30" as="alternateBounds" />
          </mxGeometry>
        </mxCell>
        <mxCell id="qg1jBpmGvNMsKy6106Qw-16" value="" style="shape=tableRow;horizontal=0;startSize=0;swimlaneHead=0;swimlaneBody=0;fillColor=none;collapsible=0;dropTarget=0;points=[[0,0.5],[1,0.5]];portConstraint=eastwest;top=0;left=0;right=0;bottom=0;html=1;" vertex="1" parent="qg1jBpmGvNMsKy6106Qw-0">
          <mxGeometry y="150" width="220" height="30" as="geometry" />
        </mxCell>
        <mxCell id="qg1jBpmGvNMsKy6106Qw-17" value="" style="shape=partialRectangle;connectable=0;fillColor=none;top=0;left=0;bottom=0;right=0;editable=1;overflow=hidden;html=1;whiteSpace=wrap;" vertex="1" parent="qg1jBpmGvNMsKy6106Qw-16">
          <mxGeometry width="60" height="30" as="geometry">
            <mxRectangle width="60" height="30" as="alternateBounds" />
          </mxGeometry>
        </mxCell>
        <mxCell id="qg1jBpmGvNMsKy6106Qw-18" value="&lt;span style=&quot;text-align: center;&quot;&gt;atributo 4&lt;/span&gt;" style="shape=partialRectangle;connectable=0;fillColor=none;top=0;left=0;bottom=0;right=0;align=left;spacingLeft=6;overflow=hidden;html=1;whiteSpace=wrap;" vertex="1" parent="qg1jBpmGvNMsKy6106Qw-16">
          <mxGeometry x="60" width="160" height="30" as="geometry">
            <mxRectangle width="160" height="30" as="alternateBounds" />
          </mxGeometry>
        </mxCell>
      </root>
    </mxGraphModel>
  </diagram>
  <diagram id="XtF1g5zMYm17qLheYRyL" name="Diagrama de flujo de datos">
    <mxGraphModel dx="840" dy="497" grid="1" gridSize="10" guides="1" tooltips="1" connect="1" arrows="1" fold="1" page="1" pageScale="1" pageWidth="827" pageHeight="1169" math="0" shadow="0">
      <root>
        <mxCell id="0" />
        <mxCell id="1" parent="0" />
        <mxCell id="UHn_rzKEAXvG_Hiq_8Dz-15" value="Externo" style="shape=umlFrame;whiteSpace=wrap;html=1;pointerEvents=0;recursiveResize=0;container=1;collapsible=0;width=160;" parent="1" vertex="1">
          <mxGeometry x="180" y="240" width="360" height="260" as="geometry" />
        </mxCell>
        <mxCell id="UHn_rzKEAXvG_Hiq_8Dz-16" style="edgeStyle=orthogonalEdgeStyle;rounded=0;orthogonalLoop=1;jettySize=auto;html=1;" parent="1" source="UHn_rzKEAXvG_Hiq_8Dz-20" target="UHn_rzKEAXvG_Hiq_8Dz-23" edge="1">
          <mxGeometry relative="1" as="geometry" />
        </mxCell>
        <mxCell id="UHn_rzKEAXvG_Hiq_8Dz-17" value="Presenta Solicitud" style="edgeLabel;html=1;align=center;verticalAlign=middle;resizable=0;points=[];" parent="UHn_rzKEAXvG_Hiq_8Dz-16" vertex="1" connectable="0">
          <mxGeometry x="-0.268" y="-1" relative="1" as="geometry">
            <mxPoint as="offset" />
          </mxGeometry>
        </mxCell>
        <mxCell id="UHn_rzKEAXvG_Hiq_8Dz-18" style="edgeStyle=orthogonalEdgeStyle;rounded=0;orthogonalLoop=1;jettySize=auto;html=1;curved=1;" parent="1" source="UHn_rzKEAXvG_Hiq_8Dz-20" target="UHn_rzKEAXvG_Hiq_8Dz-23" edge="1">
          <mxGeometry relative="1" as="geometry">
            <Array as="points">
              <mxPoint x="240" y="320" />
              <mxPoint x="240" y="420" />
              <mxPoint x="310" y="420" />
            </Array>
          </mxGeometry>
        </mxCell>
        <mxCell id="UHn_rzKEAXvG_Hiq_8Dz-19" value="Formulario,&amp;nbsp;&lt;div&gt;Documentos&lt;/div&gt;" style="edgeLabel;html=1;align=center;verticalAlign=middle;resizable=0;points=[];" parent="UHn_rzKEAXvG_Hiq_8Dz-18" vertex="1" connectable="0">
          <mxGeometry x="0.2002" y="-1" relative="1" as="geometry">
            <mxPoint x="1" y="-20" as="offset" />
          </mxGeometry>
        </mxCell>
        <mxCell id="UHn_rzKEAXvG_Hiq_8Dz-20" value="Ciudadano" style="ellipse;whiteSpace=wrap;html=1;aspect=fixed;" parent="1" vertex="1">
          <mxGeometry x="325.5" y="290" width="70" height="70" as="geometry" />
        </mxCell>
        <mxCell id="UHn_rzKEAXvG_Hiq_8Dz-21" style="edgeStyle=orthogonalEdgeStyle;rounded=0;orthogonalLoop=1;jettySize=auto;html=1;curved=1;" parent="1" source="UHn_rzKEAXvG_Hiq_8Dz-23" target="UHn_rzKEAXvG_Hiq_8Dz-20" edge="1">
          <mxGeometry relative="1" as="geometry">
            <Array as="points">
              <mxPoint x="410" y="420" />
              <mxPoint x="480" y="420" />
              <mxPoint x="480" y="320" />
            </Array>
          </mxGeometry>
        </mxCell>
        <mxCell id="UHn_rzKEAXvG_Hiq_8Dz-22" value="Notificar al&lt;div&gt;Ciudadano&lt;/div&gt;" style="edgeLabel;html=1;align=center;verticalAlign=middle;resizable=0;points=[];" parent="UHn_rzKEAXvG_Hiq_8Dz-21" vertex="1" connectable="0">
          <mxGeometry x="-0.1546" relative="1" as="geometry">
            <mxPoint y="-14" as="offset" />
          </mxGeometry>
        </mxCell>
        <mxCell id="UHn_rzKEAXvG_Hiq_8Dz-23" value="Ejecutivo de Plataforma" style="rounded=0;whiteSpace=wrap;html=1;" parent="1" vertex="1">
          <mxGeometry x="278" y="440" width="165" height="40" as="geometry" />
        </mxCell>
        <mxCell id="UHn_rzKEAXvG_Hiq_8Dz-43" value="Jefatura Sección de Patentes" style="rounded=0;whiteSpace=wrap;html=1;" parent="1" vertex="1">
          <mxGeometry x="270" y="585" width="180" height="40" as="geometry" />
        </mxCell>
        <mxCell id="UHn_rzKEAXvG_Hiq_8Dz-72" style="edgeStyle=orthogonalEdgeStyle;rounded=0;orthogonalLoop=1;jettySize=auto;html=1;curved=1;" parent="1" source="UHn_rzKEAXvG_Hiq_8Dz-44" edge="1">
          <mxGeometry relative="1" as="geometry">
            <mxPoint x="400" y="820" as="targetPoint" />
            <Array as="points">
              <mxPoint x="361" y="755" />
              <mxPoint x="360" y="755" />
              <mxPoint x="360" y="820" />
            </Array>
          </mxGeometry>
        </mxCell>
        <mxCell id="UHn_rzKEAXvG_Hiq_8Dz-44" value="Administrativos" style="rounded=0;whiteSpace=wrap;html=1;" parent="1" vertex="1">
          <mxGeometry x="305.5" y="670" width="110" height="40" as="geometry" />
        </mxCell>
        <mxCell id="UHn_rzKEAXvG_Hiq_8Dz-45" style="edgeStyle=orthogonalEdgeStyle;rounded=0;orthogonalLoop=1;jettySize=auto;html=1;" parent="1" source="UHn_rzKEAXvG_Hiq_8Dz-43" target="UHn_rzKEAXvG_Hiq_8Dz-44" edge="1">
          <mxGeometry relative="1" as="geometry" />
        </mxCell>
        <mxCell id="UHn_rzKEAXvG_Hiq_8Dz-46" value="Analiza Documentos" style="edgeLabel;html=1;align=center;verticalAlign=middle;resizable=0;points=[];" parent="UHn_rzKEAXvG_Hiq_8Dz-45" vertex="1" connectable="0">
          <mxGeometry x="0.0087" y="-1" relative="1" as="geometry">
            <mxPoint x="1" y="-1" as="offset" />
          </mxGeometry>
        </mxCell>
        <mxCell id="UHn_rzKEAXvG_Hiq_8Dz-47" style="edgeStyle=orthogonalEdgeStyle;rounded=0;orthogonalLoop=1;jettySize=auto;html=1;" parent="1" target="UHn_rzKEAXvG_Hiq_8Dz-43" edge="1">
          <mxGeometry relative="1" as="geometry">
            <mxPoint x="301" y="480" as="sourcePoint" />
            <Array as="points">
              <mxPoint x="360" y="480" />
            </Array>
          </mxGeometry>
        </mxCell>
        <mxCell id="UHn_rzKEAXvG_Hiq_8Dz-48" value="Envia Caso" style="edgeLabel;html=1;align=center;verticalAlign=middle;resizable=0;points=[];" parent="UHn_rzKEAXvG_Hiq_8Dz-47" vertex="1" connectable="0">
          <mxGeometry x="0.1202" y="-2" relative="1" as="geometry">
            <mxPoint x="2" y="3" as="offset" />
          </mxGeometry>
        </mxCell>
        <mxCell id="UHn_rzKEAXvG_Hiq_8Dz-49" value="Aplicacion" style="shape=umlFrame;whiteSpace=wrap;html=1;pointerEvents=0;recursiveResize=0;container=1;collapsible=0;width=160;fillColor=default;" parent="1" vertex="1">
          <mxGeometry x="240" y="530" width="240" height="200" as="geometry" />
        </mxCell>
        <mxCell id="UHn_rzKEAXvG_Hiq_8Dz-62" style="edgeStyle=orthogonalEdgeStyle;rounded=0;orthogonalLoop=1;jettySize=auto;html=1;curved=1;" parent="1" edge="1">
          <mxGeometry relative="1" as="geometry">
            <mxPoint x="278" y="460" as="sourcePoint" />
            <mxPoint x="175.09090909090855" y="800" as="targetPoint" />
          </mxGeometry>
        </mxCell>
        <mxCell id="UHn_rzKEAXvG_Hiq_8Dz-64" style="edgeStyle=orthogonalEdgeStyle;rounded=0;orthogonalLoop=1;jettySize=auto;html=1;curved=1;" parent="1" edge="1">
          <mxGeometry relative="1" as="geometry">
            <mxPoint x="443" y="460" as="targetPoint" />
            <Array as="points">
              <mxPoint x="451" y="770" />
              <mxPoint x="520" y="770" />
              <mxPoint x="520" y="460" />
            </Array>
            <mxPoint x="451.090909090909" y="800" as="sourcePoint" />
          </mxGeometry>
        </mxCell>
        <mxCell id="UHn_rzKEAXvG_Hiq_8Dz-73" value="Dominio" style="shape=umlFrame;whiteSpace=wrap;html=1;pointerEvents=0;recursiveResize=0;container=1;collapsible=0;width=160;" parent="1" vertex="1">
          <mxGeometry x="80" y="750" width="610" height="110" as="geometry" />
        </mxCell>
        <mxCell id="kUBEjpwtbIBXbCaJrVu3-6" style="edgeStyle=orthogonalEdgeStyle;rounded=0;orthogonalLoop=1;jettySize=auto;html=1;" parent="1" source="UHn_rzKEAXvG_Hiq_8Dz-74" target="kUBEjpwtbIBXbCaJrVu3-2" edge="1">
          <mxGeometry relative="1" as="geometry" />
        </mxCell>
        <mxCell id="UHn_rzKEAXvG_Hiq_8Dz-74" value="Generar Decreto" style="rounded=0;whiteSpace=wrap;html=1;" parent="1" vertex="1">
          <mxGeometry x="400" y="800" width="102" height="40" as="geometry" />
        </mxCell>
        <mxCell id="UHn_rzKEAXvG_Hiq_8Dz-75" value="Procesar Solicitud" style="rounded=0;whiteSpace=wrap;html=1;" parent="1" vertex="1">
          <mxGeometry x="540" y="800" width="120" height="40" as="geometry" />
        </mxCell>
        <mxCell id="kUBEjpwtbIBXbCaJrVu3-5" style="edgeStyle=orthogonalEdgeStyle;rounded=0;orthogonalLoop=1;jettySize=auto;html=1;" parent="1" source="UHn_rzKEAXvG_Hiq_8Dz-76" target="kUBEjpwtbIBXbCaJrVu3-1" edge="1">
          <mxGeometry relative="1" as="geometry" />
        </mxCell>
        <mxCell id="UHn_rzKEAXvG_Hiq_8Dz-76" value="Validar Documentos" style="rounded=0;whiteSpace=wrap;html=1;" parent="1" vertex="1">
          <mxGeometry x="110" y="800" width="130" height="40" as="geometry" />
        </mxCell>
        <mxCell id="kUBEjpwtbIBXbCaJrVu3-1" value="Base de datos Documentos" style="shape=cylinder3;whiteSpace=wrap;html=1;boundedLbl=1;backgroundOutline=1;size=12.114257812499886;" parent="1" vertex="1">
          <mxGeometry x="120" y="940" width="105.5" height="70" as="geometry" />
        </mxCell>
        <mxCell id="kUBEjpwtbIBXbCaJrVu3-2" value="Base de datos Patentes" style="shape=cylinder3;whiteSpace=wrap;html=1;boundedLbl=1;backgroundOutline=1;size=12.114257812499886;" parent="1" vertex="1">
          <mxGeometry x="401.5" y="940" width="100" height="70" as="geometry" />
        </mxCell>
        <mxCell id="kUBEjpwtbIBXbCaJrVu3-4" value="Base de datos Propiedades, Arriendos y Comercios" style="shape=cylinder3;whiteSpace=wrap;html=1;boundedLbl=1;backgroundOutline=1;size=12.114257812499886;" parent="1" vertex="1">
          <mxGeometry x="270.5" y="940" width="100" height="90" as="geometry" />
        </mxCell>
        <mxCell id="kUBEjpwtbIBXbCaJrVu3-7" value="Persistencia" style="shape=umlFrame;whiteSpace=wrap;html=1;pointerEvents=0;recursiveResize=0;container=1;collapsible=0;width=160;" parent="1" vertex="1">
          <mxGeometry x="90" y="890" width="590" height="180" as="geometry" />
        </mxCell>
        <mxCell id="kUBEjpwtbIBXbCaJrVu3-3" value="Base de datos Personas" style="shape=cylinder3;whiteSpace=wrap;html=1;boundedLbl=1;backgroundOutline=1;size=12.114257812499886;" parent="kUBEjpwtbIBXbCaJrVu3-7" vertex="1">
          <mxGeometry x="460" y="50" width="100" height="70" as="geometry" />
        </mxCell>
      </root>
    </mxGraphModel>
  </diagram>
  <diagram name="Copia de Diagrama de flujo de datos" id="rHgWDToXqMZb0g9Xa3hy">
    <mxGraphModel dx="1050" dy="621" grid="1" gridSize="10" guides="1" tooltips="1" connect="1" arrows="1" fold="1" page="1" pageScale="1" pageWidth="827" pageHeight="1169" math="0" shadow="0">
      <root>
        <mxCell id="FqkObVS_vdRNJr4hFqda-0" />
        <mxCell id="FqkObVS_vdRNJr4hFqda-1" parent="FqkObVS_vdRNJr4hFqda-0" />
        <mxCell id="XY0LGhi6HWea_EzirV1u-4" style="edgeStyle=orthogonalEdgeStyle;rounded=0;orthogonalLoop=1;jettySize=auto;html=1;" parent="FqkObVS_vdRNJr4hFqda-1" source="FqkObVS_vdRNJr4hFqda-2" target="XY0LGhi6HWea_EzirV1u-6" edge="1">
          <mxGeometry relative="1" as="geometry">
            <mxPoint x="915" y="170" as="targetPoint" />
          </mxGeometry>
        </mxCell>
        <mxCell id="XY0LGhi6HWea_EzirV1u-5" value="HTTPS" style="edgeLabel;html=1;align=center;verticalAlign=middle;resizable=0;points=[];" parent="XY0LGhi6HWea_EzirV1u-4" vertex="1" connectable="0">
          <mxGeometry x="-0.1223" relative="1" as="geometry">
            <mxPoint as="offset" />
          </mxGeometry>
        </mxCell>
        <mxCell id="FqkObVS_vdRNJr4hFqda-2" value="Externo" style="shape=umlFrame;whiteSpace=wrap;html=1;pointerEvents=0;recursiveResize=0;container=1;collapsible=0;width=160;" parent="FqkObVS_vdRNJr4hFqda-1" vertex="1">
          <mxGeometry x="790" y="10" width="250" height="110" as="geometry" />
        </mxCell>
        <mxCell id="XY0LGhi6HWea_EzirV1u-2" value="Navegador Web" style="rounded=0;whiteSpace=wrap;html=1;" parent="FqkObVS_vdRNJr4hFqda-2" vertex="1">
          <mxGeometry x="30" y="50" width="80" height="40" as="geometry" />
        </mxCell>
        <mxCell id="XY0LGhi6HWea_EzirV1u-1" value="Aplicación Móvil" style="rounded=0;whiteSpace=wrap;html=1;" parent="FqkObVS_vdRNJr4hFqda-2" vertex="1">
          <mxGeometry x="140" y="50" width="80" height="40" as="geometry" />
        </mxCell>
        <mxCell id="XY0LGhi6HWea_EzirV1u-19" style="edgeStyle=orthogonalEdgeStyle;rounded=0;orthogonalLoop=1;jettySize=auto;html=1;curved=1;" parent="FqkObVS_vdRNJr4hFqda-1" source="hQIQNNaCn3x2sluGxUiH-0" target="XY0LGhi6HWea_EzirV1u-26" edge="1">
          <mxGeometry relative="1" as="geometry">
            <mxPoint x="600" y="190" as="targetPoint" />
            <Array as="points">
              <mxPoint x="720" y="340" />
              <mxPoint x="720" y="240" />
              <mxPoint x="555" y="240" />
            </Array>
            <mxPoint x="875" y="190.02857142857135" as="sourcePoint" />
          </mxGeometry>
        </mxCell>
        <mxCell id="hQIQNNaCn3x2sluGxUiH-3" style="edgeStyle=orthogonalEdgeStyle;rounded=0;orthogonalLoop=1;jettySize=auto;html=1;" edge="1" parent="FqkObVS_vdRNJr4hFqda-1" source="XY0LGhi6HWea_EzirV1u-6" target="hQIQNNaCn3x2sluGxUiH-0">
          <mxGeometry relative="1" as="geometry" />
        </mxCell>
        <mxCell id="XY0LGhi6HWea_EzirV1u-6" value="Servicios de Red" style="shape=umlFrame;whiteSpace=wrap;html=1;pointerEvents=0;recursiveResize=0;container=1;collapsible=0;width=160;" parent="FqkObVS_vdRNJr4hFqda-1" vertex="1">
          <mxGeometry x="780" y="160" width="270" height="110" as="geometry" />
        </mxCell>
        <mxCell id="XY0LGhi6HWea_EzirV1u-7" value="&lt;i&gt;DNS Resolver&lt;/i&gt;&lt;div&gt;Route 53&lt;/div&gt;" style="rounded=0;whiteSpace=wrap;html=1;" parent="XY0LGhi6HWea_EzirV1u-6" vertex="1">
          <mxGeometry x="30" y="50" width="90" height="40" as="geometry" />
        </mxCell>
        <mxCell id="XY0LGhi6HWea_EzirV1u-8" value="&lt;i&gt;Load Balancer&lt;/i&gt;&lt;div&gt;ALB&lt;/div&gt;" style="rounded=0;whiteSpace=wrap;html=1;" parent="XY0LGhi6HWea_EzirV1u-6" vertex="1">
          <mxGeometry x="150" y="50" width="90" height="40" as="geometry" />
        </mxCell>
        <mxCell id="XY0LGhi6HWea_EzirV1u-33" style="edgeStyle=orthogonalEdgeStyle;rounded=0;orthogonalLoop=1;jettySize=auto;html=1;curved=1;" parent="FqkObVS_vdRNJr4hFqda-1" source="XY0LGhi6HWea_EzirV1u-13" target="XY0LGhi6HWea_EzirV1u-30" edge="1">
          <mxGeometry relative="1" as="geometry" />
        </mxCell>
        <mxCell id="XY0LGhi6HWea_EzirV1u-13" value="Cluster de Contenedores" style="shape=umlFrame;whiteSpace=wrap;html=1;pointerEvents=0;recursiveResize=0;container=1;collapsible=0;width=160;" parent="FqkObVS_vdRNJr4hFqda-1" vertex="1">
          <mxGeometry x="350" y="230" width="370" height="170" as="geometry" />
        </mxCell>
        <mxCell id="XY0LGhi6HWea_EzirV1u-17" style="edgeStyle=orthogonalEdgeStyle;rounded=0;orthogonalLoop=1;jettySize=auto;html=1;curved=1;" parent="XY0LGhi6HWea_EzirV1u-13" edge="1">
          <mxGeometry relative="1" as="geometry">
            <mxPoint x="155" y="110" as="targetPoint" />
          </mxGeometry>
        </mxCell>
        <mxCell id="XY0LGhi6HWea_EzirV1u-18" style="edgeStyle=orthogonalEdgeStyle;rounded=0;orthogonalLoop=1;jettySize=auto;html=1;curved=1;" parent="XY0LGhi6HWea_EzirV1u-13" edge="1">
          <mxGeometry relative="1" as="geometry">
            <mxPoint x="375" y="110" as="targetPoint" />
          </mxGeometry>
        </mxCell>
        <mxCell id="XY0LGhi6HWea_EzirV1u-23" style="edgeStyle=orthogonalEdgeStyle;rounded=0;orthogonalLoop=1;jettySize=auto;html=1;" parent="FqkObVS_vdRNJr4hFqda-1" source="XY0LGhi6HWea_EzirV1u-20" target="XY0LGhi6HWea_EzirV1u-22" edge="1">
          <mxGeometry relative="1" as="geometry" />
        </mxCell>
        <mxCell id="XY0LGhi6HWea_EzirV1u-20" value="Docker Gestor de BD CAS chile" style="rounded=0;whiteSpace=wrap;html=1;" parent="FqkObVS_vdRNJr4hFqda-1" vertex="1">
          <mxGeometry x="568" y="430" width="106" height="40" as="geometry" />
        </mxCell>
        <mxCell id="XY0LGhi6HWea_EzirV1u-21" style="edgeStyle=orthogonalEdgeStyle;rounded=0;orthogonalLoop=1;jettySize=auto;html=1;curved=1;" parent="FqkObVS_vdRNJr4hFqda-1" target="XY0LGhi6HWea_EzirV1u-20" edge="1">
          <mxGeometry relative="1" as="geometry">
            <mxPoint x="645" y="380" as="sourcePoint" />
            <Array as="points">
              <mxPoint x="646" y="380" />
              <mxPoint x="646" y="400" />
              <mxPoint x="621" y="400" />
            </Array>
          </mxGeometry>
        </mxCell>
        <mxCell id="XY0LGhi6HWea_EzirV1u-22" value="Base de Datos CAS Chile" style="rounded=0;whiteSpace=wrap;html=1;" parent="FqkObVS_vdRNJr4hFqda-1" vertex="1">
          <mxGeometry x="568" y="500" width="106" height="40" as="geometry" />
        </mxCell>
        <mxCell id="XY0LGhi6HWea_EzirV1u-24" value="Docker Microservicio N" style="rounded=0;whiteSpace=wrap;html=1;" parent="FqkObVS_vdRNJr4hFqda-1" vertex="1">
          <mxGeometry x="380" y="340" width="90" height="40" as="geometry" />
        </mxCell>
        <mxCell id="XY0LGhi6HWea_EzirV1u-25" value="Docker Microservicio M" style="rounded=0;whiteSpace=wrap;html=1;" parent="FqkObVS_vdRNJr4hFqda-1" vertex="1">
          <mxGeometry x="600" y="340" width="90" height="40" as="geometry" />
        </mxCell>
        <mxCell id="XY0LGhi6HWea_EzirV1u-27" style="edgeStyle=orthogonalEdgeStyle;rounded=0;orthogonalLoop=1;jettySize=auto;html=1;" parent="FqkObVS_vdRNJr4hFqda-1" source="XY0LGhi6HWea_EzirV1u-26" target="XY0LGhi6HWea_EzirV1u-24" edge="1">
          <mxGeometry relative="1" as="geometry" />
        </mxCell>
        <mxCell id="XY0LGhi6HWea_EzirV1u-28" style="edgeStyle=orthogonalEdgeStyle;rounded=0;orthogonalLoop=1;jettySize=auto;html=1;" parent="FqkObVS_vdRNJr4hFqda-1" source="XY0LGhi6HWea_EzirV1u-26" target="XY0LGhi6HWea_EzirV1u-25" edge="1">
          <mxGeometry relative="1" as="geometry" />
        </mxCell>
        <mxCell id="XY0LGhi6HWea_EzirV1u-26" value="&lt;i&gt;Kafka Broker&lt;/i&gt;&lt;div&gt;Mensajeria&lt;/div&gt;" style="rounded=0;whiteSpace=wrap;html=1;" parent="FqkObVS_vdRNJr4hFqda-1" vertex="1">
          <mxGeometry x="490" y="280" width="90" height="40" as="geometry" />
        </mxCell>
        <mxCell id="XY0LGhi6HWea_EzirV1u-30" value="Monitoreo" style="shape=umlFrame;whiteSpace=wrap;html=1;pointerEvents=0;recursiveResize=0;container=1;collapsible=0;width=160;" parent="FqkObVS_vdRNJr4hFqda-1" vertex="1">
          <mxGeometry x="280" y="450" width="250" height="110" as="geometry" />
        </mxCell>
        <mxCell id="XY0LGhi6HWea_EzirV1u-31" value="Logos y Métricas" style="rounded=0;whiteSpace=wrap;html=1;" parent="XY0LGhi6HWea_EzirV1u-30" vertex="1">
          <mxGeometry x="30" y="50" width="80" height="40" as="geometry" />
        </mxCell>
        <mxCell id="XY0LGhi6HWea_EzirV1u-32" value="&lt;i&gt;Visualización&lt;/i&gt;&lt;div&gt;Grafana&lt;/div&gt;" style="rounded=0;whiteSpace=wrap;html=1;" parent="XY0LGhi6HWea_EzirV1u-30" vertex="1">
          <mxGeometry x="140" y="50" width="80" height="40" as="geometry" />
        </mxCell>
        <mxCell id="hQIQNNaCn3x2sluGxUiH-0" value="&lt;i&gt;Api Gateway&lt;/i&gt;&lt;div&gt;KrakenD&lt;/div&gt;" style="rounded=0;whiteSpace=wrap;html=1;" vertex="1" parent="FqkObVS_vdRNJr4hFqda-1">
          <mxGeometry x="875" y="320" width="80" height="40" as="geometry" />
        </mxCell>
      </root>
    </mxGraphModel>
  </diagram>
  <diagram id="lcOTfV1FVwDsRXsuiXZG" name="Página-4">
    <mxGraphModel dx="1877" dy="621" grid="1" gridSize="10" guides="1" tooltips="1" connect="1" arrows="1" fold="1" page="1" pageScale="1" pageWidth="827" pageHeight="1169" math="0" shadow="0">
      <root>
        <mxCell id="0" />
        <mxCell id="1" parent="0" />
        <mxCell id="U7youGv2q6nNMqBMvOau-1" value="formulario_inscripcion" style="rounded=0;whiteSpace=wrap;html=1;" parent="1" vertex="1">
          <mxGeometry x="-140" y="570" width="140" height="40" as="geometry" />
        </mxCell>
        <mxCell id="U7youGv2q6nNMqBMvOau-2" value="contrato_arriendo" style="rounded=0;whiteSpace=wrap;html=1;" parent="1" vertex="1">
          <mxGeometry x="-130" y="450" width="140" height="40" as="geometry" />
        </mxCell>
        <mxCell id="U7youGv2q6nNMqBMvOau-3" value="inicio_actividades" style="rounded=0;whiteSpace=wrap;html=1;" parent="1" vertex="1">
          <mxGeometry x="-130" y="130" width="140" height="40" as="geometry" />
        </mxCell>
        <mxCell id="U7youGv2q6nNMqBMvOau-4" value="resolucion_sanitaria" style="rounded=0;whiteSpace=wrap;html=1;" parent="1" vertex="1">
          <mxGeometry x="-130" y="270" width="140" height="40" as="geometry" />
        </mxCell>
        <mxCell id="U7youGv2q6nNMqBMvOau-5" value="archivo_resolucion_sanitaria" style="ellipse;whiteSpace=wrap;html=1;" parent="1" vertex="1">
          <mxGeometry x="-330" y="250" width="180" height="30" as="geometry" />
        </mxCell>
        <mxCell id="U7youGv2q6nNMqBMvOau-6" value="" style="endArrow=classic;html=1;rounded=0;" parent="1" source="U7youGv2q6nNMqBMvOau-4" target="U7youGv2q6nNMqBMvOau-5" edge="1">
          <mxGeometry width="50" height="50" relative="1" as="geometry">
            <mxPoint x="-140" y="390" as="sourcePoint" />
            <mxPoint x="-90" y="340" as="targetPoint" />
          </mxGeometry>
        </mxCell>
        <mxCell id="U7youGv2q6nNMqBMvOau-7" value="direccion_local" style="ellipse;whiteSpace=wrap;html=1;" parent="1" vertex="1">
          <mxGeometry x="-90" y="210" width="100" height="30" as="geometry" />
        </mxCell>
        <mxCell id="U7youGv2q6nNMqBMvOau-8" value="" style="endArrow=classic;html=1;rounded=0;" parent="1" source="U7youGv2q6nNMqBMvOau-4" target="U7youGv2q6nNMqBMvOau-7" edge="1">
          <mxGeometry width="50" height="50" relative="1" as="geometry">
            <mxPoint x="-25" y="320" as="sourcePoint" />
            <mxPoint x="-1" y="350" as="targetPoint" />
          </mxGeometry>
        </mxCell>
        <mxCell id="U7youGv2q6nNMqBMvOau-9" value="giro" style="ellipse;whiteSpace=wrap;html=1;" parent="1" vertex="1">
          <mxGeometry x="-140" y="220" width="50" height="30" as="geometry" />
        </mxCell>
        <mxCell id="U7youGv2q6nNMqBMvOau-10" value="" style="endArrow=classic;html=1;rounded=0;" parent="1" source="U7youGv2q6nNMqBMvOau-4" target="U7youGv2q6nNMqBMvOau-9" edge="1">
          <mxGeometry width="50" height="50" relative="1" as="geometry">
            <mxPoint x="-80" y="320" as="sourcePoint" />
            <mxPoint x="-124" y="342" as="targetPoint" />
          </mxGeometry>
        </mxCell>
        <mxCell id="U7youGv2q6nNMqBMvOau-11" value="avaluo_fiscal" style="rounded=0;whiteSpace=wrap;html=1;" parent="1" vertex="1">
          <mxGeometry x="-130" y="340" width="140" height="40" as="geometry" />
        </mxCell>
        <mxCell id="U7youGv2q6nNMqBMvOau-12" value="archivo_avaluo_fiscal" style="ellipse;whiteSpace=wrap;html=1;" parent="1" vertex="1">
          <mxGeometry x="-270" y="390" width="140" height="30" as="geometry" />
        </mxCell>
        <mxCell id="U7youGv2q6nNMqBMvOau-13" value="" style="group" parent="1" vertex="1" connectable="0">
          <mxGeometry x="-270" y="330" width="100" height="40" as="geometry" />
        </mxCell>
        <mxCell id="U7youGv2q6nNMqBMvOau-14" value="" style="ellipse;whiteSpace=wrap;html=1;fillColor=default;" parent="U7youGv2q6nNMqBMvOau-13" vertex="1">
          <mxGeometry width="100" height="40" as="geometry" />
        </mxCell>
        <mxCell id="U7youGv2q6nNMqBMvOau-15" value="propietarios" style="ellipse;whiteSpace=wrap;html=1;" parent="U7youGv2q6nNMqBMvOau-13" vertex="1">
          <mxGeometry x="6.25" y="5" width="87.5" height="30" as="geometry" />
        </mxCell>
        <mxCell id="U7youGv2q6nNMqBMvOau-16" value="" style="endArrow=classic;html=1;rounded=0;" parent="1" source="U7youGv2q6nNMqBMvOau-11" target="U7youGv2q6nNMqBMvOau-14" edge="1">
          <mxGeometry width="50" height="50" relative="1" as="geometry">
            <mxPoint x="-101" y="367" as="sourcePoint" />
            <mxPoint x="-160" y="330" as="targetPoint" />
          </mxGeometry>
        </mxCell>
        <mxCell id="U7youGv2q6nNMqBMvOau-17" value="" style="endArrow=classic;html=1;rounded=0;" parent="1" source="U7youGv2q6nNMqBMvOau-11" target="U7youGv2q6nNMqBMvOau-12" edge="1">
          <mxGeometry width="50" height="50" relative="1" as="geometry">
            <mxPoint x="-100" y="420" as="sourcePoint" />
            <mxPoint x="-140" y="420" as="targetPoint" />
          </mxGeometry>
        </mxCell>
        <mxCell id="U7youGv2q6nNMqBMvOau-18" value="arrendador" style="ellipse;whiteSpace=wrap;html=1;" parent="1" vertex="1">
          <mxGeometry x="-400" y="450" width="140" height="30" as="geometry" />
        </mxCell>
        <mxCell id="U7youGv2q6nNMqBMvOau-19" value="arrendatario" style="ellipse;whiteSpace=wrap;html=1;" parent="1" vertex="1">
          <mxGeometry x="-400" y="480" width="140" height="30" as="geometry" />
        </mxCell>
        <mxCell id="U7youGv2q6nNMqBMvOau-20" value="destino" style="ellipse;whiteSpace=wrap;html=1;" parent="1" vertex="1">
          <mxGeometry x="-400" y="510" width="140" height="30" as="geometry" />
        </mxCell>
        <mxCell id="U7youGv2q6nNMqBMvOau-21" value="archivo_contrato_arriendo" style="ellipse;whiteSpace=wrap;html=1;" parent="1" vertex="1">
          <mxGeometry x="-410" y="540" width="160" height="30" as="geometry" />
        </mxCell>
        <mxCell id="U7youGv2q6nNMqBMvOau-22" value="" style="endArrow=classic;html=1;rounded=0;" parent="1" source="U7youGv2q6nNMqBMvOau-2" target="U7youGv2q6nNMqBMvOau-21" edge="1">
          <mxGeometry width="50" height="50" relative="1" as="geometry">
            <mxPoint x="-210" y="520" as="sourcePoint" />
            <mxPoint x="-160" y="470" as="targetPoint" />
          </mxGeometry>
        </mxCell>
        <mxCell id="U7youGv2q6nNMqBMvOau-23" value="" style="endArrow=classic;html=1;rounded=0;" parent="1" source="U7youGv2q6nNMqBMvOau-2" target="U7youGv2q6nNMqBMvOau-20" edge="1">
          <mxGeometry width="50" height="50" relative="1" as="geometry">
            <mxPoint x="-210" y="520" as="sourcePoint" />
            <mxPoint x="-160" y="470" as="targetPoint" />
          </mxGeometry>
        </mxCell>
        <mxCell id="U7youGv2q6nNMqBMvOau-24" value="" style="endArrow=classic;html=1;rounded=0;" parent="1" source="U7youGv2q6nNMqBMvOau-2" target="U7youGv2q6nNMqBMvOau-19" edge="1">
          <mxGeometry width="50" height="50" relative="1" as="geometry">
            <mxPoint x="-210" y="520" as="sourcePoint" />
            <mxPoint x="-160" y="470" as="targetPoint" />
          </mxGeometry>
        </mxCell>
        <mxCell id="U7youGv2q6nNMqBMvOau-25" value="" style="endArrow=classic;html=1;rounded=0;" parent="1" source="U7youGv2q6nNMqBMvOau-2" target="U7youGv2q6nNMqBMvOau-18" edge="1">
          <mxGeometry width="50" height="50" relative="1" as="geometry">
            <mxPoint x="-210" y="520" as="sourcePoint" />
            <mxPoint x="-160" y="470" as="targetPoint" />
          </mxGeometry>
        </mxCell>
        <mxCell id="U7youGv2q6nNMqBMvOau-26" value="fecha_inicio_actividades" style="ellipse;whiteSpace=wrap;html=1;" parent="1" vertex="1">
          <mxGeometry x="-315" y="110" width="150" height="30" as="geometry" />
        </mxCell>
        <mxCell id="U7youGv2q6nNMqBMvOau-27" value="" style="endArrow=classic;html=1;rounded=0;" parent="1" source="U7youGv2q6nNMqBMvOau-3" target="U7youGv2q6nNMqBMvOau-26" edge="1">
          <mxGeometry width="50" height="50" relative="1" as="geometry">
            <mxPoint x="-209" y="210" as="sourcePoint" />
            <mxPoint x="-231" y="188" as="targetPoint" />
          </mxGeometry>
        </mxCell>
        <mxCell id="U7youGv2q6nNMqBMvOau-28" value="actividad_a_realizar" style="ellipse;whiteSpace=wrap;html=1;" parent="1" vertex="1">
          <mxGeometry x="-295" y="160" width="130" height="30" as="geometry" />
        </mxCell>
        <mxCell id="U7youGv2q6nNMqBMvOau-29" value="" style="endArrow=classic;html=1;rounded=0;" parent="1" source="U7youGv2q6nNMqBMvOau-3" target="U7youGv2q6nNMqBMvOau-28" edge="1">
          <mxGeometry width="50" height="50" relative="1" as="geometry">
            <mxPoint x="-120" y="150" as="sourcePoint" />
            <mxPoint x="-168" y="144" as="targetPoint" />
          </mxGeometry>
        </mxCell>
        <mxCell id="U7youGv2q6nNMqBMvOau-30" value="nombre_comerciante" style="ellipse;whiteSpace=wrap;html=1;" parent="1" vertex="1">
          <mxGeometry x="-345" y="600" width="130" height="30" as="geometry" />
        </mxCell>
        <mxCell id="U7youGv2q6nNMqBMvOau-31" value="direccion_comerciante" style="ellipse;whiteSpace=wrap;html=1;" parent="1" vertex="1">
          <mxGeometry x="-350" y="640" width="140" height="30" as="geometry" />
        </mxCell>
        <mxCell id="U7youGv2q6nNMqBMvOau-32" value="numero" style="ellipse;whiteSpace=wrap;html=1;" parent="1" vertex="1">
          <mxGeometry x="-320" y="680" width="80" height="30" as="geometry" />
        </mxCell>
        <mxCell id="U7youGv2q6nNMqBMvOau-33" value="archivo_formulario_inscripcion" style="ellipse;whiteSpace=wrap;html=1;" parent="1" vertex="1">
          <mxGeometry x="-370" y="720" width="180" height="30" as="geometry" />
        </mxCell>
        <mxCell id="U7youGv2q6nNMqBMvOau-34" value="" style="endArrow=classic;html=1;rounded=0;" parent="1" source="U7youGv2q6nNMqBMvOau-1" target="U7youGv2q6nNMqBMvOau-33" edge="1">
          <mxGeometry width="50" height="50" relative="1" as="geometry">
            <mxPoint x="-110" y="700" as="sourcePoint" />
            <mxPoint x="-60" y="650" as="targetPoint" />
          </mxGeometry>
        </mxCell>
        <mxCell id="U7youGv2q6nNMqBMvOau-35" value="" style="endArrow=classic;html=1;rounded=0;" parent="1" source="U7youGv2q6nNMqBMvOau-1" target="U7youGv2q6nNMqBMvOau-32" edge="1">
          <mxGeometry width="50" height="50" relative="1" as="geometry">
            <mxPoint x="-110" y="700" as="sourcePoint" />
            <mxPoint x="-60" y="650" as="targetPoint" />
          </mxGeometry>
        </mxCell>
        <mxCell id="U7youGv2q6nNMqBMvOau-36" value="" style="endArrow=classic;html=1;rounded=0;" parent="1" source="U7youGv2q6nNMqBMvOau-1" target="U7youGv2q6nNMqBMvOau-31" edge="1">
          <mxGeometry width="50" height="50" relative="1" as="geometry">
            <mxPoint x="-110" y="700" as="sourcePoint" />
            <mxPoint x="-60" y="650" as="targetPoint" />
          </mxGeometry>
        </mxCell>
        <mxCell id="U7youGv2q6nNMqBMvOau-37" value="" style="endArrow=classic;html=1;rounded=0;" parent="1" source="U7youGv2q6nNMqBMvOau-1" target="U7youGv2q6nNMqBMvOau-30" edge="1">
          <mxGeometry width="50" height="50" relative="1" as="geometry">
            <mxPoint x="-110" y="700" as="sourcePoint" />
            <mxPoint x="-60" y="650" as="targetPoint" />
          </mxGeometry>
        </mxCell>
      </root>
    </mxGraphModel>
  </diagram>
</mxfile>
